# Blender v2.93.2 OBJ File: ''
# www.blender.org
mtllib untitled.mtl
o 立方体_立方体.001
v -1.950056 -9.000000 16.000000
v -1.950056 9.000000 16.000000
v -1.950056 -9.000000 -16.000000
v -1.950056 9.000000 -16.000000
v 1.950056 -7.413317 14.413317
v 1.950056 7.413317 14.413317
v 1.950056 -7.413317 -14.413317
v 1.950056 7.413317 -14.413317
v 1.950056 9.000000 -16.000000
v 1.950056 -9.000000 -16.000000
v 1.950056 -9.000000 16.000000
v 1.950056 9.000000 16.000000
v -0.574321 7.413317 -14.413317
v -0.574321 -7.413317 -14.413317
v -0.574321 -7.413317 14.413317
v -0.574321 7.413317 14.413317
vt 0.000000 0.218750
vt 0.000000 0.781250
vt 1.000000 0.781250
vt 1.000000 0.218750
vt 0.421143 0.218750
vt 0.421143 0.781250
vt 0.543021 0.781250
vt 0.543021 0.218750
vt 0.543021 0.731666
vt 0.543021 0.268334
vt 0.464134 0.268334
vt 0.464134 0.731666
vt 0.543021 0.218750
vt 0.543021 0.781250
vt 0.421143 0.781250
vt 0.421143 0.218750
vt 0.421143 1.000000
vt 0.543021 1.000000
vt 0.543021 0.000000
vt 0.421143 0.000000
vt 0.543021 1.000000
vt 0.421143 1.000000
vt 0.421143 0.000000
vt 0.543021 0.000000
vt 0.950416 0.731666
vt 0.950416 0.268334
vt 1.000000 0.218750
vt 1.000000 0.781250
vt 0.049584 0.268334
vt 0.000000 0.218750
vt 0.049584 0.731666
vt 0.000000 0.781250
vt 0.950416 0.268334
vt 0.950416 0.731666
vt 0.049584 0.731666
vt 0.049584 0.268334
vt 0.543021 0.049584
vt 0.543021 0.950416
vt 0.464134 0.950416
vt 0.464134 0.049584
vt 0.543021 0.950416
vt 0.543021 0.049584
vt 0.464134 0.049584
vt 0.464134 0.950416
vt 0.543021 0.268334
vt 0.543021 0.731666
vt 0.464134 0.731666
vt 0.464134 0.268334
vn -1.0000 0.0000 0.0000
vn 0.0000 0.0000 -1.0000
vn 0.0000 0.0000 1.0000
vn 0.0000 -1.0000 0.0000
vn 0.0000 1.0000 0.0000
vn 1.0000 0.0000 0.0000
usemtl 材质.001
s off
f 1/1/1 2/2/1 4/3/1 3/4/1
f 3/5/2 4/6/2 9/7/2 10/8/2
f 6/9/2 5/10/2 15/11/2 16/12/2
f 11/13/3 12/14/3 2/15/3 1/16/3
f 3/17/4 10/18/4 11/19/4 1/20/4
f 9/21/5 4/22/5 2/23/5 12/24/5
f 8/25/6 7/26/6 10/27/6 9/28/6
f 7/26/6 5/29/6 11/30/6 10/27/6
f 6/31/6 8/25/6 9/28/6 12/32/6
f 5/29/6 6/31/6 12/32/6 11/30/6
f 14/33/6 13/34/6 16/35/6 15/36/6
f 5/37/5 7/38/5 14/39/5 15/40/5
f 8/41/4 6/42/4 16/43/4 13/44/4
f 7/45/3 8/46/3 13/47/3 14/48/3
