<?xml version="1.0" encoding="utf-8"?>
<!-- Generator: Adobe Illustrator 21.0.0, SVG Export Plug-In . SVG Version: 6.00 Build 0)  -->
<svg version="1.1" id="图层_1" xmlns="http://www.w3.org/2000/svg" xmlns:xlink="http://www.w3.org/1999/xlink" x="0px" y="0px"
	 viewBox="0 0 209.7 49.2" style="enable-background:new 0 0 209.7 49.2;" xml:space="preserve">
<style type="text/css">
	.st0{fill:#FFFFFF;}
</style>
<path class="st0" d="M43.7,27.4l1-0.2l0.1-0.5l-1.5,0.3l-0.5-0.3l-0.1,0.4l1.9,1l0.1-0.4L43.7,27.4z M44.8,26.3l0-0.4l-0.2,0
	c0.1-0.1,0.2-0.2,0.2-0.4c0-0.4-0.2-0.6-0.7-0.6c-0.5,0-0.7,0.2-0.7,0.6c0,0.2,0.1,0.3,0.2,0.4c-0.3,0-0.5-0.1-0.5-0.3
	c0-0.1,0.1-0.2,0.2-0.2l0-0.4c-0.3,0-0.5,0.2-0.5,0.7c0,0.5,0.2,0.7,0.7,0.7L44.8,26.3z M44.1,25.3c0.3,0,0.5,0.1,0.5,0.3
	c0,0.2-0.2,0.3-0.5,0.3c-0.3,0-0.4-0.1-0.4-0.3C43.7,25.3,43.8,25.2,44.1,25.3 M44.1,23.3c0.3,0,0.5,0.1,0.5,0.3
	c0,0.2-0.1,0.3-0.5,0.3c-0.3,0-0.5-0.1-0.5-0.3C43.6,23.4,43.8,23.3,44.1,23.3 M44.2,24.3c0.5-0.1,0.7-0.3,0.7-0.8
	c-0.1-0.5-0.3-0.7-0.8-0.7c-0.5,0.1-0.7,0.3-0.7,0.8C43.4,24.1,43.7,24.3,44.2,24.3 M45.3,21.6L43.2,22l0.1,0.4l2.1-0.3L45.3,21.6z
	 M43.6,20.3c0.3-0.1,0.5,0,0.5,0.2c0,0.2-0.1,0.3-0.4,0.4c-0.3,0.1-0.5,0-0.5-0.2C43.2,20.5,43.3,20.4,43.6,20.3 M43.9,21.4
	c0.5-0.1,0.7-0.4,0.6-0.9c-0.1-0.5-0.4-0.7-0.9-0.6c-0.5,0.1-0.7,0.4-0.6,0.9C43.1,21.3,43.4,21.4,43.9,21.4 M43.8,18.2l-0.1-0.4
	l-1.4,0.4l0.1,0.4l0.8-0.3c0.2,0,0.3,0,0.4,0.1c0.1,0.2,0,0.3-0.2,0.3l-0.8,0.3l0.1,0.4l0.9-0.3c0.1,0,0.1,0,0.2-0.1
	c0.2-0.1,0.2-0.3,0.2-0.5c-0.1-0.2-0.2-0.3-0.3-0.4l0,0L43.8,18.2z M41.7,16.9l0.8-0.3c0.2-0.1,0.3,0,0.4,0.1c0.1,0.2,0,0.3-0.2,0.4
	l-0.8,0.3l0.2,0.4l0.9-0.4c0.1,0,0.1-0.1,0.2-0.1c0.1-0.1,0.2-0.3,0.1-0.6c-0.1-0.2-0.2-0.3-0.4-0.3l0,0l0.7-0.3l-0.2-0.4l-1.9,0.8
	L41.7,16.9z M42.2,15.7L42,15.3c0.2-0.1,0.2-0.2,0.1-0.3c0-0.1-0.2-0.1-0.5,0c0,0,0,0,0,0c0,0,0,0,0,0c-0.3,0.2-0.4,0.3-0.3,0.4
	c0.1,0.1,0.2,0.1,0.3,0.1l0.2,0.4c-0.3,0.2-0.6,0.1-0.8-0.3c-0.2-0.4-0.1-0.7,0.3-0.9c0.4-0.2,0.8-0.1,1,0.2
	C42.6,15.2,42.5,15.5,42.2,15.7 M40.8,13.4c0.2-0.1,0.3-0.1,0.4,0c0.1,0.1,0.1,0.3-0.1,0.4L40.8,13.4z M41.1,14.4
	c0.1-0.1,0.2-0.1,0.2-0.2c0.1-0.1,0.1-0.1,0.2-0.2c0.1-0.2,0.1-0.5-0.1-0.7c-0.3-0.3-0.6-0.4-1-0.1c-0.4,0.3-0.5,0.6-0.2,1
	c0.2,0.3,0.5,0.4,0.7,0.3l-0.2-0.3c-0.1,0-0.2,0-0.3-0.1c-0.1-0.1,0-0.3,0.2-0.4L41.1,14.4z M39.9,10.9l0.3-0.2l1.1,1.3L41,12.2
	l-0.4-0.5l-1.3,1.1L39,12.5l1.3-1.1L39.9,10.9z M38.5,10c0-0.2,0-0.3-0.2-0.4c-0.3-0.3-0.7-0.2-1,0.1c-0.3,0.4-0.3,0.7,0,1
	c0.2,0.1,0.3,0.2,0.5,0.1c0,0,0,0-0.1,0.1c0,0-0.1,0.1-0.1,0.1l0.3,0.3c0.1-0.1,0.1-0.1,0.2-0.2l1.2-1.3L39,9.4L38.5,10z M37.6,10
	c0.2-0.2,0.4-0.3,0.6-0.1c0.1,0.1,0.1,0.3-0.1,0.6c-0.2,0.2-0.4,0.3-0.5,0.1C37.4,10.5,37.4,10.3,37.6,10 M36.6,8.3l-0.1,0.1l0,0
	c0.2-0.1,0.3,0,0.5,0.1c0.2,0.2,0.3,0.4,0.2,0.5c0,0.1-0.1,0.2-0.1,0.2L36.5,10l-0.4-0.3L36.6,9c0.1-0.2,0.1-0.3,0-0.4
	c-0.1-0.1-0.3,0-0.4,0.1l-0.5,0.7l-0.3-0.3L36.2,8L36.6,8.3z M34.7,7.5c0.1-0.1,0.2-0.1,0.3-0.1c0.1,0.1,0.1,0.2,0.1,0.3L35,7.8
	c-0.2-0.1-0.4-0.2-0.5-0.2c-0.2,0-0.4,0.1-0.5,0.2c-0.1,0.2-0.1,0.4,0.2,0.6c0.2,0.1,0.3,0.1,0.5,0c0,0.1-0.1,0.1-0.1,0.2l0.3,0.2
	c0,0,0-0.1,0-0.1c0,0,0,0,0,0L35.4,8c0.2-0.3,0.1-0.6-0.2-0.8c-0.2-0.1-0.3-0.1-0.4-0.1c-0.1,0-0.3,0.1-0.4,0.2L34.7,7.5z M34.9,8.1
	c-0.1,0.2-0.3,0.3-0.4,0.2c-0.1-0.1-0.1-0.2-0.1-0.3C34.5,7.9,34.6,7.9,34.9,8.1 M32.4,6.5l0.5,0.2c0.1-0.2,0-0.3-0.1-0.4
	C32.6,6.2,32.5,6.3,32.4,6.5 M33.2,7.1l-0.9-0.4c-0.1,0.2-0.1,0.4,0.1,0.4c0.1,0.1,0.2,0,0.3-0.1l0.4,0.1c-0.1,0.3-0.4,0.3-0.8,0.2
	c-0.4-0.2-0.6-0.5-0.4-0.9c0.2-0.4,0.5-0.6,0.9-0.5c0.3,0.1,0.4,0.3,0.4,0.5c0,0.1,0,0.2,0,0.3C33.2,6.9,33.2,7,33.2,7.1 M31.6,6.1
	c0.1-0.3,0-0.6-0.4-0.7c-0.4-0.1-0.7,0.1-0.9,0.5c-0.1,0.5,0,0.8,0.4,0.9c0.4,0.1,0.6,0,0.8-0.3l-0.4-0.1c-0.1,0.2-0.2,0.2-0.3,0.2
	c-0.1,0-0.1-0.2,0-0.5c0,0,0,0,0,0c0,0,0,0,0,0c0.1-0.3,0.2-0.4,0.3-0.3c0.1,0,0.2,0.2,0.1,0.3L31.6,6.1z M29.1,4.8l-0.4-0.1
	l-0.3,1.4l0.4,0.1L29,5.4c0.1-0.2,0.2-0.3,0.3-0.3c0.2,0,0.2,0.2,0.2,0.4l-0.2,0.8l0.4,0.1l0.2-0.9c0-0.1,0-0.1,0-0.2
	c0-0.2-0.1-0.3-0.4-0.4c-0.2,0-0.4,0-0.5,0.1l0,0L29.1,4.8z M27.1,5c0-0.2,0.1-0.3,0.3-0.3c0.2,0,0.2,0.1,0.2,0.3L27.1,5z M28,5.5
	c0-0.1,0-0.2,0-0.3c0-0.1,0-0.2,0-0.3c-0.1-0.2-0.3-0.4-0.6-0.4c-0.4,0-0.7,0.2-0.8,0.7c-0.1,0.5,0.1,0.8,0.6,0.8
	C27.6,6,27.9,5.9,28,5.6l-0.4-0.1c-0.1,0.1-0.2,0.2-0.3,0.1c-0.2,0-0.2-0.1-0.2-0.4L28,5.5z M25.7,3.8l0,0.4l0.5,0l0-0.4L25.7,3.8z
	 M25.7,4.4l-0.1,1.4l0.4,0l0.1-1.4L25.7,4.4z M25.3,4.9c0-0.4-0.2-0.5-0.6-0.6c-0.4,0-0.6,0.3-0.7,0.8c0,0.5,0.2,0.7,0.7,0.7
	c0.4,0,0.6-0.2,0.6-0.6h-0.4c0,0.2-0.1,0.3-0.2,0.3c-0.1,0-0.2-0.1-0.2-0.4v0v0c0-0.3,0.1-0.4,0.2-0.4c0.1,0,0.2,0.1,0.2,0.3H25.3z
	 M23.4,4.3c-0.1-0.4-0.3-0.6-0.8-0.6c-0.5,0.1-0.8,0.3-0.8,0.8c0,0.3,0.3,0.4,0.7,0.5c0,0,0,0,0.1,0c0.3,0,0.4,0.1,0.4,0.3
	c0,0.2-0.1,0.3-0.4,0.3c-0.2,0-0.4-0.1-0.4-0.4l-0.4,0c0,0.5,0.3,0.7,0.9,0.6c0.6-0.1,0.9-0.3,0.8-0.7c0-0.3-0.3-0.5-0.8-0.5
	c0,0,0,0-0.1,0c-0.3,0-0.4-0.1-0.4-0.3c0-0.2,0.1-0.3,0.3-0.3c0.2,0,0.3,0.1,0.4,0.3L23.4,4.3z M20.6,4.1c-0.1,0-0.2,0-0.2,0
	c-0.2,0-0.3,0.1-0.4,0.2c0,0.1,0,0.3,0,0.5l-0.2,0l0.1,0.3l0.2,0l0.2,1.1l0.4-0.1l-0.2-1.1l0.3,0l-0.1-0.3l-0.3,0
	c0-0.2-0.1-0.3,0-0.3c0-0.1,0.1-0.1,0.2-0.1L20.6,4.1z M18.6,6c-0.1-0.3,0-0.5,0.2-0.5c0.2-0.1,0.4,0.1,0.4,0.4
	c0.1,0.3,0,0.5-0.2,0.5C18.8,6.4,18.7,6.3,18.6,6 M19.6,5.7c-0.2-0.5-0.5-0.6-0.9-0.5c-0.5,0.2-0.6,0.5-0.5,0.9
	c0.2,0.5,0.5,0.6,0.9,0.5C19.6,6.5,19.7,6.2,19.6,5.7 M16.6,7.1l-0.1-1l0.4-0.2L17.1,8l-0.4,0.2l-0.1-0.6l-1.1-1.1l0.4-0.2L16.6,7.1
	z M14.3,7.1l0.1,0.3l0.3-0.1L15,7.9c0.1,0.3,0.3,0.4,0.6,0.2C15.7,8.1,15.8,8,15.9,8l-0.1-0.2c0,0-0.1,0.1-0.1,0.1
	c-0.1,0.1-0.2,0-0.3-0.1l-0.3-0.6l0.3-0.1l-0.1-0.3l-0.3,0.1l-0.2-0.4l-0.3,0.3L14.5,7L14.3,7.1z M13.2,7.2l0.2,0.3l0.4-0.3
	l-0.2-0.3L13.2,7.2z M13.5,7.7l0.4-0.2l0.8,1.2l-0.4,0.2L13.5,7.7z M13.3,8.3c-0.2-0.2-0.4-0.2-0.7,0c-0.3,0.3-0.4,0.5-0.2,0.7
	c0.1,0.2,0.4,0.2,0.7,0.1C13.2,9,13.3,9,13.4,9c0.1,0.1,0,0.2-0.1,0.2c-0.1,0.1-0.2,0.1-0.3,0l-0.3,0.2c0.2,0.2,0.4,0.2,0.8,0
	c0.3-0.3,0.4-0.5,0.3-0.7c-0.2-0.2-0.5-0.2-0.7-0.1c-0.2,0.1-0.3,0.1-0.3,0c-0.1-0.1,0-0.1,0.1-0.2c0.1-0.1,0.2-0.1,0.2,0L13.3,8.3z
	 M11.1,9.5l0.3-0.3l0.2,0.2l0,0c-0.1-0.2,0-0.4,0.2-0.5L12,9.2l-0.1,0.1c-0.1,0.1-0.1,0.2-0.1,0.2c0,0.1,0,0.1,0.1,0.2c0,0,0,0,0,0
	l0.5,0.5L12,10.6l-0.8-0.9c0,0,0,0-0.1-0.1C11.1,9.6,11.1,9.6,11.1,9.5 M10.4,10.9c-0.1-0.2-0.1-0.3,0-0.4c0.1-0.1,0.3-0.1,0.4,0
	L10.4,10.9z M11.3,10.5c-0.1-0.1-0.1-0.1-0.2-0.2c-0.1-0.1-0.1-0.1-0.2-0.1c-0.2-0.1-0.5,0-0.7,0.2c-0.3,0.3-0.3,0.7,0,1
	c0.3,0.4,0.7,0.4,1,0.1c0.3-0.3,0.3-0.5,0.2-0.8l-0.3,0.3c0.1,0.1,0,0.2-0.1,0.3c-0.1,0.1-0.3,0.1-0.4-0.1L11.3,10.5z M9.9,12.9
	l-1.4-0.5L8.7,12l1,0.4l-0.5-0.9l0.3-0.3l0.8,1.3L9.9,12.9z M7.4,12.8l0.3-0.4l0.3,0.2L7.7,13L7.4,12.8z M7.9,13.1L9.1,14l0.3-0.4
	l-1.2-0.8L7.9,13.1z M7.1,14.5l0.1,0.1l0,0c-0.1-0.1-0.1-0.3,0.1-0.5c0.2-0.2,0.3-0.3,0.5-0.2c0.1,0,0.2,0.1,0.2,0.1l0.8,0.5
	l-0.2,0.4l-0.7-0.5c-0.2-0.1-0.3-0.1-0.4,0c-0.1,0.1,0,0.3,0.1,0.4l0.7,0.5l-0.2,0.4l-1.2-0.8L7.1,14.5z M5.7,15.7l1,0.4
	c0.2,0.1,0.4,0.2,0.4,0.3c0.1,0.1,0.1,0.2,0,0.4C7.1,17,7,17,6.9,17.1c-0.1,0-0.3,0-0.5-0.1l-1-0.4l-0.2,0.4l1.2,0.5
	c0.5,0.2,0.8,0,1.1-0.5c0.2-0.5,0.1-0.9-0.4-1.1l-1.2-0.5L5.7,15.7z M5,19.4l-0.1,0.4l1.4,0.4l0.1-0.4l-0.8-0.3
	c-0.2-0.1-0.3-0.2-0.2-0.3C5.4,19,5.5,19,5.7,19l0.8,0.3l0.1-0.4l-0.9-0.3c-0.1,0-0.1,0-0.2,0c-0.2,0-0.3,0.1-0.4,0.4
	c-0.1,0.2,0,0.4,0.1,0.5l0,0L5,19.4z M5,21.3c-0.1,0-0.2-0.1-0.2-0.2c0-0.1,0.1-0.2,0.2-0.2l0.1,0c0,0.2-0.1,0.4,0,0.6
	c0,0.2,0.2,0.3,0.4,0.4c0.3,0,0.4-0.1,0.5-0.4c0.1-0.2,0-0.4-0.1-0.5c0.1,0,0.1,0,0.2,0l0.1-0.4c0,0-0.1,0-0.1,0c0,0,0,0,0,0
	l-0.8-0.2c-0.4-0.1-0.6,0.1-0.7,0.5c0,0.2,0,0.3,0,0.4c0,0.1,0.1,0.2,0.3,0.3L5,21.3z M5.5,21c0.3,0.1,0.4,0.2,0.4,0.3
	c0,0.1-0.1,0.2-0.2,0.2C5.4,21.5,5.4,21.3,5.5,21 M4.4,23.2l0,0.4l1.4,0.2l0-0.4L5,23.3c-0.2,0-0.3-0.1-0.3-0.3
	c0-0.2,0.1-0.2,0.4-0.2l0.9,0.1l0-0.4L5,22.3c-0.1,0-0.1,0-0.2,0c-0.2,0-0.3,0.2-0.4,0.4c0,0.2,0,0.4,0.2,0.5l0,0L4.4,23.2z
	 M5.8,24.8v-0.4H5.7c-0.1,0-0.1,0-0.1,0H4.3v0.4h0.9c0.2,0,0.3,0.1,0.3,0.3c0,0.2-0.1,0.3-0.3,0.3H4.3v0.4h0.9c0.1,0,0.2,0,0.2,0
	c0.2-0.1,0.3-0.2,0.3-0.5c0-0.2-0.1-0.3-0.2-0.4L5.8,24.8z M6,27.5l-0.9,0.1L5,26.9l0.9-0.1l-0.1-0.4l-2.1,0.3L3.9,27l0.8-0.1
	l0.1,0.8L4,27.8L4,28.2L6.1,28L6,27.5z"/>
<path class="st0" d="M15.9,43.8C15.9,43.8,15.8,43.8,15.9,43.8C15.8,43.8,15.8,43.8,15.9,43.8C15.9,43.8,15.9,43.8,15.9,43.8
	C15.9,43.8,15.9,43.8,15.9,43.8 M17.3,41.4c0,0,0,0.1,0,0.1c0,0,0,0.1,0,0.1c0,0.1-0.1,0.1-0.1,0.2c0,0.1-0.1,0.1-0.1,0.2
	c0,0-0.1,0.1-0.1,0.1c0,0,0,0,0,0c0,0,0,0,0,0c0,0,0,0,0,0c0,0,0,0,0,0c0,0,0,0,0,0c0.1,0,0.1,0,0.2,0c0,0,0.1,0,0.1-0.1
	c0,0,0-0.1,0-0.1c0,0,0.1,0.1,0.1,0.1c0,0,0,0.1,0,0.2c0,0.1-0.1,0.1-0.2,0.1c-0.1,0-0.2,0.1-0.3,0.1c-0.1,0-0.6,0.1-0.6,0.2
	c0,0,0,0,0,0c0.1,0,0.2,0,0.3,0c0.2,0,0.3,0,0.5,0c0.1,0,0.1,0,0.2,0c0.1,0,0.1,0.1,0.2,0.1c0.1,0.1-0.2,0.5-0.3,0.6
	c-0.1,0.1-0.1,0.2-0.2,0.3c-0.1,0.1-0.1,0.2-0.2,0.3c0,0.1-0.1,0.2-0.1,0.2c-0.1,0.3-0.3,0.7-0.5,0.9c-0.1,0-0.1,0-0.2,0
	c-0.1-0.1-0.2-0.4-0.2-0.4c0,0,0,0,0,0c0,0,0,0,0,0c0,0,0.1,0.1,0.1,0.1c0,0,0.1,0.1,0.2,0.1c0,0,0.1,0,0.1-0.1c0,0,0.1-0.1,0.1-0.1
	c0.1-0.1,0.1-0.2,0.2-0.3c0.1-0.1,0.1-0.3,0.2-0.4c0.1-0.1,0.1-0.2,0.2-0.3c0-0.1,0.1-0.2,0.1-0.2c0-0.1,0.1-0.1,0.1-0.2
	c0-0.1,0.1-0.2,0.1-0.3c-0.1-0.1-0.8,0-0.9,0c-0.1,0-0.3,0.1-0.5,0.2c0,0-0.2,0-0.2,0c0,0,0,0,0,0c0.1,0,0.3,0,0.4,0
	c0,0,0.1-0.1,0.1-0.1c0.1,0,0.2,0.1,0.3,0.1c0.1,0.1-0.2,0.2-0.3,0.3c0,0-0.1,0.1-0.2,0.1c0,0,0,0,0,0c0,0,0,0,0,0
	c0,0.1,0.1,0.1,0.1,0.2c0,0.1,0,0.2-0.1,0.3c0,0-0.1,0.1-0.1,0.1c-0.1,0.1-0.1,0.2-0.2,0.3c0,0.1-0.1,0.1-0.1,0.2c0,0,0,0,0,0
	c0-0.1,0-0.3,0.1-0.4c0,0,0,0-0.1,0c0,0-0.2,0-0.2,0c0,0,0-0.1,0-0.1c0-0.2,0.3-0.2,0.4-0.4c0,0,0-0.1,0-0.1c0,0,0-0.1,0-0.1
	c0,0,0-0.1,0-0.1c-0.2,0.1-0.1-0.2-0.3-0.2c0,0-0.1,0-0.1,0c-0.1,0-0.2,0-0.3,0c-0.2,0.1-0.3,0.3-0.4,0.5c0,0-0.1,0.1-0.1,0.1
	c0,0,0,0-0.1,0.1c0,0,0,0,0,0c0-0.1,0-0.2,0-0.3c0-0.1,0.1-0.2,0.2-0.3c0,0,0.1,0,0.1-0.1c0.1-0.1,0.1-0.1,0.2-0.2
	c0.2-0.1,0.3-0.2,0.5-0.3c0.1,0,0.6-0.1,0.6-0.2c0,0,0,0,0,0c0,0,0,0,0,0c0,0,0,0,0,0c-0.1,0-0.2,0-0.4,0c-0.1,0-0.1,0-0.2,0
	c0,0-0.1,0-0.1,0c0,0-0.1,0-0.1,0c0,0-0.1,0-0.1-0.1c0,0-0.1-0.1-0.1-0.1c0,0,0,0,0,0c0,0,0,0,0,0c0,0,0,0,0,0c0,0,0,0,0.1,0
	c0.1,0,0.2,0,0.4,0c0.2,0,0.3,0,0.5-0.1c0.1,0,0.2,0,0.3,0c0.1,0,0.1-0.2,0.2-0.2c0,0,0.1-0.1,0.1-0.1c0.1-0.1,0.2-0.2,0.4-0.3
	C17.2,41.5,17.2,41.5,17.3,41.4"/>
<path class="st0" d="M20.9,44.2c0,0.1,0,0.2-0.1,0.3c0,0.1,0,0.3-0.1,0.4c0,0,0,0-0.1,0.1c0,0,0,0,0,0
	C20.7,44.6,20.8,44.4,20.9,44.2 M21.3,42.9c0,0.1-0.1,0.1-0.1,0.2c0,0.1,0,0.2-0.1,0.2c0,0-0.1,0-0.1,0c0,0-0.1,0-0.1,0.1
	c-0.1,0-0.2,0.1-0.3,0.1c-0.1,0.1-0.2,0.1-0.3,0.2c-0.1,0-0.1,0.1-0.2,0.1c0,0,0,0,0,0c0,0,0,0,0,0c0,0,0.1,0,0.1,0
	c0.1,0,0.1,0,0.2-0.1c0.1,0,0.3-0.1,0.4-0.2c0,0,0,0,0,0c0,0,0,0,0,0c0,0-0.1,0.1-0.1,0.1c0,0-0.1,0.1-0.1,0.1
	c-0.1,0.2-0.3,0.4-0.3,0.6c0,0.1-0.1,0.2-0.1,0.3c0,0.1,0,0.1-0.1,0.2c0,0,0,0.1,0,0.1c0,0.2,0.1,0.4,0.3,0.3c0,0,0.1,0,0.1-0.1
	c0,0,0,0,0,0c0,0.1,0,0.3,0,0.4c0,0.1,0,0.1,0,0.2c0,0.1-0.1,0.1-0.1,0.1c0,0.1,0.1,0.2,0.2,0.2c0.2,0,0.2-0.5,0.2-0.7
	c0-0.1,0-0.1,0-0.2c0-0.1,0-0.3,0-0.4c0-0.1,0-0.2,0.1-0.3c0,0,0-0.1,0-0.1c0-0.1,0-0.2,0.1-0.3c0-0.1,0.1-0.3,0.2-0.4
	c0-0.1,0.1-0.1,0.1-0.2c0,0,0,0,0-0.1c0-0.1,0-0.1,0-0.2c0,0,0-0.1,0-0.1C21.4,43.1,21.4,42.9,21.3,42.9 M22.1,42.8
	c-0.1,0-0.1,0.1-0.1,0.2c0,0,0.1,0,0.1,0.1c0,0.1-0.1,0.1-0.1,0.1c0,0,0,0,0,0c0,0,0.1,0,0.1,0c0.1,0,0.3-0.1,0.2-0.3
	c0,0,0-0.1-0.1-0.1C22.3,42.9,22.2,42.8,22.1,42.8 M23.3,42.1c0,0,0,0.1,0,0.1c0,0,0,0.1,0,0.1c0,0.1-0.1,0.2-0.1,0.3
	c0,0.2-0.1,0.3-0.1,0.5c0,0.1-0.1,0.2-0.1,0.3c0,0-0.1,0.2,0,0.2c0,0,0,0,0,0c0,0,0,0,0,0c0,0,0,0,0,0c0,0,0,0,0,0
	c0.1-0.2,0.3-0.4,0.4-0.6c0,0,0-0.1,0-0.1C23.4,42.8,23.4,42.3,23.3,42.1 M21.9,41.8c-0.1,0.1-0.1,0.1-0.2,0.2
	c-0.1,0.1-0.2,0.2-0.3,0.3c0,0-0.1,0.1-0.1,0.1c0,0,0,0.1,0,0.1c0,0,0.1,0,0.1,0c0.1,0,0.1-0.1,0.2-0.1c0.2-0.1,0.4-0.2,0.4-0.4
	C22.1,41.9,22,41.9,21.9,41.8 M23.3,42C23.3,42,23.3,42.1,23.3,42c0.2,0.1,0.2,0.4,0.2,0.6c0,0.1,0,0.1,0,0.2c0,0,0,0.1,0,0.1
	c0,0.1,0,0.2-0.1,0.3c0,0,0,0.1-0.1,0.1c0,0,0,0.1-0.1,0.1c-0.1,0.1-0.2,0.2-0.2,0.4c0,0,0,0,0,0.1c-0.1,0.1-0.2,0.2-0.3,0.4
	c-0.1,0.2-0.1,0.5-0.1,0.7c0,0.3-0.1,0.6-0.1,0.9c0,0.2-0.1,0.3-0.2,0.5c-0.1,0.2-0.1,0.3-0.1,0.5c0,0,0,0.1,0,0.1
	c0,0.2-0.1,0.3-0.1,0.4c0,0,0,0,0,0.1c0,0,0,0,0,0c0-0.3,0-0.5,0.1-0.8c0-0.1,0-0.2,0-0.3c0-0.1,0-0.2,0.1-0.2c0-0.1,0-0.3,0.1-0.4
	c0,0,0-0.1,0-0.1c0-0.2,0-0.3,0.1-0.5c0-0.2,0.1-0.4,0.1-0.6c0,0,0-0.1,0-0.1c0,0,0,0,0,0c0,0,0,0,0,0c0,0,0,0,0,0
	c-0.1,0-0.1,0.1-0.1,0.1c-0.1,0.1-0.3,0.2-0.4,0.4c0,0-0.1,0.1-0.1,0.1c-0.1,0-0.2,0-0.3-0.1c-0.2-0.2,0.2-0.6,0.3-0.7
	c0-0.1,0.1-0.1,0.1-0.2c0,0,0,0,0,0c0,0-0.1-0.2-0.1-0.2c0-0.1,0-0.1,0-0.2c0,0,0,0,0,0c0,0,0.1-0.1,0.1-0.1c0.1,0,0.3,0.1,0.4,0.1
	c0,0,0.1,0.1,0.1,0.1c0,0,0,0.1,0,0.2c0,0-0.1,0.1-0.1,0.1c-0.1,0.1-0.3,0.3-0.4,0.5c0,0,0,0.1,0,0.1c0,0,0,0,0,0
	c0.1-0.1,0.2-0.2,0.3-0.2c0.1-0.1,0.2-0.2,0.3-0.3c0,0,0.1-0.1,0.1-0.1c0,0,0-0.1,0.1-0.1c0-0.1,0.1-0.3,0.1-0.4
	c0.1-0.2,0.1-0.4,0.2-0.6c0-0.1,0-0.2,0.1-0.3c0-0.1,0-0.2,0.1-0.3C23.1,42.1,23.2,42.1,23.3,42"/>
<path class="st0" d="M28.4,44.5c0,0-0.2,0.1-0.2,0.1c0,0,0,0-0.1,0c0,0-0.2,0.1-0.1,0.2c0,0,0.1,0.1,0.2,0.1c0.1,0,0.1,0.1,0.2,0.1
	c0,0,0.1,0,0.1,0c0,0,0,0,0,0c0,0,0.1-0.1,0.1-0.1c0-0.1,0.1-0.2,0-0.3c0,0,0-0.1,0-0.1C28.5,44.5,28.4,44.5,28.4,44.5 M28.1,43.4
	C28.1,43.4,28.1,43.5,28.1,43.4C28.1,43.5,28.1,43.4,28.1,43.4C28.1,43.4,28.1,43.4,28.1,43.4 M26.6,43.3c0,0.2-0.1,0.3,0,0.5
	c0,0,0,0,0,0c0,0,0,0,0,0c0,0,0,0,0,0c0,0,0.1-0.1,0.1-0.1c0,0,0.1-0.2,0.1-0.2c0,0,0,0-0.1-0.1C26.7,43.4,26.7,43.3,26.6,43.3
	 M26.5,42.9c0.1,0,0.2,0.1,0.2,0.2c0,0.1,0.1,0.1,0.1,0.2c0.1,0.1,0.3,0.1,0.3,0.2c0,0,0,0.1,0,0.1c0,0-0.1,0.1-0.2,0.2
	c0,0,0,0.1-0.1,0.1c0,0.1-0.1,0.1-0.1,0.2c0,0,0,0.1-0.1,0.1c0,0,0,0-0.1,0.1c0,0-0.1,0.1-0.1,0.1c0,0,0,0-0.1,0.1
	c0,0.1,0,0.2,0,0.3c0,0.1,0,0.2,0,0.3c0,0,0,0,0,0c0,0,0,0,0,0c0.1,0,0.2-0.1,0.2-0.2c0.1-0.1,0.2-0.1,0.2-0.2
	c0.1-0.1,0.2-0.2,0.2-0.2c0.1-0.1,0.2-0.2,0.3-0.3c0,0,0.1-0.1,0.1-0.2c0-0.2,0-0.4,0-0.7c0-0.1,0-0.2,0-0.3c0,0,0.1-0.1,0.1-0.1
	c0,0,0.1,0.1,0.1,0.1c0.1,0,0.1,0.1,0.1,0.2c0.1,0.1-0.1,0.4,0.1,0.5c0,0,0,0,0,0c0-0.1,0.2-0.2,0.2-0.3c0,0,0,0,0,0
	c0.1,0,0.1,0.1,0.1,0.2c0,0,0,0,0,0c-0.1,0-0.1,0.3-0.1,0.3c0,0.1-0.1,0.2-0.2,0.2c0,0-0.1,0-0.1,0.1C28,43.9,28,44,28,44
	c0,0,0,0.1,0,0.1c0,0,0,0,0,0c0,0,0,0,0,0.1c0,0.1-0.2,0.4-0.2,0.5c0,0,0.1,0,0.1,0c0.1,0,0.1-0.1,0.2-0.2c0.1,0,0.1-0.1,0.2-0.1
	c0,0,0.1,0,0.1-0.1c0.1,0,0.1,0,0.2-0.1c0,0,0.1-0.1,0.2-0.1c0.1,0,0.2,0.1,0.2,0.1c0.1,0.1,0,0.5-0.1,0.6c0,0-0.1,0.1-0.1,0.1
	c0,0,0,0,0,0c0.2,0.1,0.4,0.3,0.7,0.4c0,0,0.1,0,0.1,0c0.1,0,0.1,0.1,0.2,0.1c0,0,0,0,0.1,0c0.1,0.1,0.3,0.4,0.2,0.5
	c0,0.1-0.1,0.1-0.2,0.1c-0.1,0-0.2-0.2-0.3-0.2c0,0-0.1,0-0.1-0.1c0,0,0,0,0-0.1c-0.1-0.1-0.3-0.3-0.5-0.4c0,0-0.1-0.1-0.2-0.1
	c0,0-0.1,0-0.1,0c0,0-0.1,0.1-0.1,0.1c-0.1,0.1-0.1,0.1-0.2,0.2c0,0.1-0.1,0.1-0.1,0.2C28,45.9,27.9,46,27.8,46c0,0-0.1,0.1-0.2,0.1
	c-0.1,0-0.3-0.3-0.3-0.4c0-0.1-0.1-0.1-0.1-0.2c0,0,0-0.1,0-0.1c0,0,0-0.1,0-0.1c0,0,0,0,0,0c0.2,0.1,0.3,0.4,0.5,0.4
	c0.2,0,0.2-0.1,0.3-0.2c0.1-0.1,0.1-0.2,0.2-0.3c0,0,0-0.1,0-0.1C28.2,45.1,28,45,27.8,45c-0.1,0-0.2,0-0.3,0c0,0-0.1-0.1-0.1-0.1
	c0.1-0.1,0.2-0.4,0.2-0.5c0,0,0-0.1,0-0.1c-0.2,0.1-0.4,0.3-0.5,0.4c-0.1,0.1-0.2,0.1-0.3,0.2c-0.1,0.1-0.1,0.1-0.2,0.2
	c0,0-0.1,0.1-0.1,0.1c0,0,0,0.1,0,0.2c0,0.2,0,0.4,0,0.6c0,0.1,0.1,0.5,0,0.6c0,0-0.1,0.1-0.1,0.1c-0.2,0.1-0.3-0.3-0.3-0.4
	c0,0-0.1-0.2-0.1-0.2c0-0.1,0.2,0,0.2,0c0,0,0,0,0.1,0c0,0,0,0,0,0c0,0,0,0,0,0c0-0.2,0-0.4,0-0.6c0,0,0,0,0,0
	c-0.2,0.2-0.3,0.4-0.5,0.5c-0.1,0-0.1,0.1-0.2,0c0,0,0-0.1,0-0.1c0,0,0.1-0.2,0.1-0.2c0-0.1,0.1-0.1,0.2-0.1
	c0.1-0.1,0.2-0.2,0.3-0.3c0.1-0.1,0.2-0.1,0.2-0.3c0,0,0-0.1,0-0.1c0,0,0-0.1,0-0.1c0-0.1,0-0.2,0-0.3c-0.1,0-0.6,0.4-0.7,0.1
	c0,0,0-0.1,0-0.1c0.1-0.1,0.2-0.1,0.3-0.2c0.1,0,0.2-0.1,0.2-0.2c0.1-0.1,0.1-0.1,0.1-0.2c0-0.1,0-0.1,0-0.2c0,0,0,0,0,0
	c0-0.1,0-0.2,0-0.3c0-0.1,0-0.2,0.1-0.2C26.5,43,26.5,42.9,26.5,42.9"/>
<path class="st0" d="M32.6,41.3c0.2-0.1,0.3,0.3,0.4,0.4c0,0,0,0,0,0c0,0.1,0,0.1,0.1,0.2c0,0.1,0.1,0.1,0.1,0.2c0,0,0,0.1,0,0.1
	c0,0.1,0,0.2,0.1,0.2c0,0,0,0,0,0c0,0,0,0,0,0c0.1-0.1,0.2-0.3,0.2-0.4c0,0,0-0.1,0-0.1c0,0,0-0.1,0-0.1c0-0.1,0-0.1,0-0.2
	c0-0.1-0.1-0.1-0.1-0.2c0,0,0,0,0,0c0,0,0,0,0,0c0.1,0,0.1,0,0.2,0.1c0.1,0.1,0.2,0.3,0.2,0.5c0,0.1,0,0.1-0.1,0.2c0,0,0,0.1,0,0.1
	c0,0,0,0.1,0,0.1c0,0,0,0.1,0,0.1c0,0,0,0,0,0.1c0,0.1,0,0.1,0,0.2c0,0.1,0,0.2,0,0.3c0,0.1,0,0.1-0.1,0.2c0,0.1,0,0.1-0.1,0.2
	c0,0,0,0.1,0,0.1c0,0.1,0,0.2,0,0.2c0,0.1,0,0.2,0,0.3c0,0,0,0.1,0,0.1c0,0,0,0,0,0c0,0,0.1,0,0.1-0.1c0,0,0.1-0.1,0.1-0.1
	c0,0,0.1,0,0.1-0.1c0,0,0,0,0.1,0c0.1-0.1,0.2-0.1,0.3-0.1c0,0,0.3-0.1,0.3-0.1c0.1,0,0.2,0.1,0.2,0.1c0,0,0,0,0,0
	c0,0,0,0.1-0.1,0.1c0,0,0,0,0,0.1c-0.1,0.1-0.1,0.2-0.2,0.3c0,0,0,0.1-0.1,0.1c0,0-0.1,0-0.1,0c0,0,0,0,0,0c0-0.1,0.1-0.3,0.1-0.4
	c0,0,0,0-0.1,0c-0.1,0-0.1,0-0.2,0.1c-0.1,0-0.1,0-0.2,0c-0.1,0.1-0.2,0.1-0.4,0.2c0,0,0,0-0.1,0.1c0,0.1,0,0.2,0,0.3
	c0,0,0,0.1-0.1,0.1c0,0,0,0.1-0.1,0.1c0,0,0,0.1,0,0.1c0,0.1-0.1,0.1-0.2,0.1c-0.1-0.1,0-0.3,0-0.4c0,0,0-0.1,0-0.1c0,0,0,0,0-0.1
	c0,0,0-0.1,0-0.1c0,0,0,0,0-0.1c0,0,0-0.1,0-0.1c0,0,0-0.1,0-0.1c0,0-0.1,0-0.1,0c-0.2,0.1-0.5,0.4-0.8,0.3c-0.1,0-0.1-0.1-0.1-0.2
	c0,0,0.1-0.1,0.1-0.1c0,0,0.1-0.1,0.1-0.1c0,0,0,0,0.1,0c0,0,0.1-0.1,0.1-0.1c0,0,0,0,0,0c0.1-0.1,0.2-0.2,0.3-0.4
	c0,0,0.1-0.1,0.1-0.1c0-0.1,0-0.1,0-0.2c0,0,0-0.1,0-0.1c0,0,0-0.1,0-0.1c0,0,0-0.1-0.1-0.1c0,0,0-0.1,0-0.1c0-0.1,0-0.1,0-0.2
	c0,0,0-0.1,0-0.1c0-0.1-0.1-0.3-0.1-0.4c0,0,0-0.1,0-0.1c0,0,0,0,0,0C32.6,41.3,32.6,41.3,32.6,41.3"/>
<path class="st0" d="M39.3,42.2C39.3,42.2,39.3,42.2,39.3,42.2C39.3,42.2,39.3,42.2,39.3,42.2C39.3,42.2,39.3,42.2,39.3,42.2
	 M37.7,38.3C37.7,38.3,37.7,38.3,37.7,38.3C37.7,38.3,37.7,38.3,37.7,38.3C37.7,38.3,37.7,38.3,37.7,38.3
	C37.7,38.3,37.7,38.3,37.7,38.3 M36.4,37.5c0.1-0.1,0.2,0,0.3,0c0.5,0.2,0.2,0.7,0.2,1c0,0,0,0.1,0,0.1c0,0,0,0,0,0c0,0,0,0,0,0
	c0,0,0.1-0.1,0.2-0.1c0.1,0,0.2,0,0.2-0.1c0,0,0-0.1,0.1-0.1c0-0.1,0.1-0.2,0.1-0.3c0.1-0.1,0.3-0.5,0.5-0.5c0.1,0,0.1,0,0.2,0.1
	c0,0.1,0,0.2,0,0.3c0,0.1,0,0.1,0,0.2c0,0.2,0,0.5,0.1,0.7c0,0.1,0,0.2,0,0.3c0,0,0,0,0,0c0,0,0,0,0,0c0.1,0,0.2-0.1,0.3,0
	c0.1,0.1,0.1,0.4,0.1,0.5c0,0,0,0.1,0,0.1c0,0,0,0.1,0,0.1c0,0.1,0,0.1,0,0.2c0,0.1,0,0.1-0.1,0.2c0,0.1-0.1,0.2-0.1,0.3
	c0,0.1-0.1,0.1,0,0.2c0,0,0,0,0,0c0,0,0,0,0,0c0,0,0,0,0,0c0,0,0,0,0,0c0,0,0-0.1,0.1-0.1c0,0,0.1-0.1,0.1-0.1c0,0,0.1-0.1,0.1-0.1
	c0.1-0.1,0.4-0.3,0.5-0.2c0,0,0,0.1,0,0.1c0,0.1,0,0.1,0,0.2c0,0,0,0,0,0.1c0,0.1-0.1,0.2-0.1,0.3c0,0-0.1,0.1-0.1,0.1c0,0,0,0,0,0
	c0-0.1,0.1-0.4,0.1-0.5c0,0,0,0,0,0c-0.1,0-0.3,0.4-0.3,0.5c0,0,0.2,0.1,0.2,0.2c0,0,0.1,0.1,0.1,0.1c0.2,0.1,0.3,0.3,0.4,0.4
	c0,0.1,0.1,0.1,0.1,0.2c0,0.1,0.1,0.1,0.1,0.2c0,0,0,0.1-0.1,0.1c-0.1,0.1-0.3,0.2-0.5,0.2c-0.1,0-0.1,0-0.2,0c0,0-0.1,0-0.1,0
	c0,0-0.1,0-0.1,0c0,0,0,0,0,0c0,0,0,0,0,0c0.1,0,0.1-0.1,0.2-0.1c0.1-0.1,0.3-0.2,0.4-0.3c0-0.1,0.1-0.1,0.1-0.2
	c0-0.1-0.2-0.3-0.3-0.4c-0.1-0.1-0.2-0.3-0.4-0.4c0,0-0.1,0-0.1,0c0,0-0.1,0.2-0.1,0.2c-0.1,0.1-0.1,0.2-0.2,0.4
	c0,0.1-0.1,0.2-0.1,0.2c-0.1,0.2-0.1,0.3-0.2,0.4c0,0-0.1,0-0.1,0c0,0-0.1-0.1-0.1-0.1c0,0,0-0.1,0-0.1c0.1-0.3,0.2-0.6,0.4-0.9
	c0.1-0.1,0.1-0.3,0.2-0.4c0,0,0,0,0,0c0-0.1-0.1-0.2-0.1-0.3c0-0.3,0-0.6,0-0.9c0,0,0,0,0,0c0,0,0,0,0,0c0,0.1-0.1,0.1-0.1,0.2
	c0,0.1-0.1,0.1-0.1,0.2c-0.1,0.1-0.1,0.2-0.2,0.4c-0.1,0.2-0.2,0.4-0.4,0.5c0,0-0.1,0-0.1,0c0,0,0,0,0,0c0,0,0,0,0,0
	c0.1-0.1,0.1-0.3,0.2-0.4c0.1-0.2,0.1-0.4,0.2-0.6c0-0.1,0.1-0.3,0.1-0.3c0,0-0.1-0.1-0.1-0.1c0,0,0,0,0,0c0,0,0,0,0,0.1
	c0,0-0.1,0.2-0.2,0.2c0-0.1,0-0.2,0-0.3c0,0,0-0.1-0.1-0.1c0-0.1,0-0.2-0.1-0.2c0,0-0.1-0.2-0.1-0.2c0-0.1,0.3,0,0.3,0c0,0,0,0,0,0
	c0,0.1,0.1,0.2,0.1,0.2c0,0.1,0,0.3,0,0.3c0,0,0,0,0-0.1c0,0,0,0,0-0.1c0,0,0-0.1,0-0.1c0,0,0-0.1,0-0.1c0-0.1,0-0.1,0-0.2
	c0-0.2,0-0.3,0-0.5c0,0,0-0.1,0-0.1c0-0.1,0-0.2-0.1-0.3c-0.2,0.2-0.2,0.5-0.3,0.7c0,0.1-0.1,0.2-0.1,0.3c0,0,0,0.1,0,0.1
	c0,0.1,0,0.2,0,0.3c0,0,0.1,0.1,0.2,0.1c0,0,0.1,0,0,0c0,0-0.1,0-0.1,0.1c0,0-0.1,0-0.1,0c0,0.1,0,0.1,0,0.2c0,0.1,0,0.3-0.1,0.4
	c0,0,0,0-0.1,0c0-0.1,0-0.6,0-0.6c0,0,0,0,0,0c0,0,0,0,0,0c0,0.1,0,0.2,0,0.2c0,0,0,0.1,0,0.1c-0.1,0.2-0.1,0.4,0,0.6
	c0,0,0,0.1,0,0.1c0,0,0,0,0,0c0,0,0,0,0,0c0,0-0.1,0-0.1,0c0,0-0.1,0-0.1,0c-0.2-0.1-0.3-0.2-0.5-0.3c0,0-0.1-0.1-0.1-0.1
	c0,0,0,0,0,0c0.1,0,0.2,0,0.3,0c0,0,0.1,0.1,0.2,0.1c0,0,0,0,0-0.1c0-0.2-0.8-0.6-1-0.7c0,0,0,0-0.1,0c0,0,0,0,0,0c0,0,0,0,0,0
	c0.2-0.1,1,0.2,1.1,0.3c0,0,0,0,0,0c0,0,0,0,0,0c0-0.1,0-0.2,0-0.2c0,0-0.1-0.1-0.1-0.1c0,0,0.1-0.1,0.1-0.1c0,0,0-0.1,0-0.1
	c0-0.1,0-0.1,0-0.2c0,0,0-0.1,0-0.1c0,0,0-0.1,0-0.1c-0.1,0-0.2,0.2-0.3,0.3c0,0,0,0.1-0.1,0.1c0,0-0.1,0-0.1,0c0,0,0-0.1,0-0.1
	c0,0,0,0,0,0c0,0-0.2,0.1-0.2,0c0,0,0,0,0,0c0,0,0,0,0,0c0,0,0,0,0.1-0.1c0,0,0,0,0-0.1c0-0.1,0.1-0.1,0.1-0.2c0-0.1,0-0.2,0-0.3
	c0-0.2,0-0.4-0.1-0.7c0-0.1,0-0.2-0.1-0.2C36.6,37.6,36.4,37.6,36.4,37.5"/>
<path class="st0" d="M12.1,39.7c-0.1,0,0,0.3-0.1,0.4c0,0-0.1-0.1-0.1-0.1c0,0-0.1,0-0.1,0c-0.1,0-0.1,0.1-0.2,0.1
	c-0.1,0.1-0.2,0.1-0.3,0.1c-0.1,0-0.1,0.1-0.2,0.1c0,0,0,0,0,0c0,0,0,0,0,0c0,0,0,0,0,0c0,0,0,0,0,0c0.1-0.1,0.3-0.2,0.1-0.3
	c0,0-0.1,0-0.1,0c-0.1,0-0.1,0-0.2,0c-0.1,0-0.2,0-0.4,0.1c0,0-0.1,0-0.1,0c-0.1,0-0.1,0-0.2,0c-0.1,0-0.1,0.2-0.1,0.2
	c0,0,0.1,0.1,0.1,0.1c0.1,0,0.2-0.1,0.3-0.1c0,0,0,0,0.1,0c0.1,0,0.2-0.1,0.3-0.1c0,0,0.1-0.1,0.1,0c0,0,0,0,0,0
	c0,0-0.1,0.1-0.1,0.1c-0.1,0.1-0.2,0.2-0.4,0.2c-0.1,0-0.1,0.1-0.2,0.1c-0.1,0.1-0.1,0.2,0,0.3c0,0,0,0,0.1,0c0.1,0,0.2-0.1,0.3-0.1
	c0.1,0,0.2-0.1,0.2-0.1c0,0,0.1,0,0.1,0c0.1-0.1,0.2-0.1,0.3-0.2c0,0,0,0,0,0c0,0,0,0,0,0c-0.1,0.1-0.2,0.2-0.3,0.3
	c-0.2,0.2-0.3,0.3-0.5,0.4c-0.1,0-0.1,0.1-0.2,0.1c-0.1,0-0.1,0.1-0.2,0.1c-0.1,0-0.2,0.2-0.3,0.1c-0.1,0-0.1-0.1-0.1-0.2
	c0,0,0,0,0,0c0,0,0,0,0,0c0,0,0,0.1-0.1,0.2c0,0.1-0.1,0.3,0,0.4c0.1,0,0.3-0.1,0.4-0.1c0,0,0.1,0,0.1,0c0.1-0.1,0.3-0.2,0.4-0.3
	c0.1-0.1,0.1-0.2,0.2-0.3c0.2-0.2,0.4-0.4,0.6-0.6c0.1-0.1,0.2-0.2,0.3-0.3c0,0,0,0,0,0c0,0,0,0,0,0c0,0-0.1,0.1-0.1,0.1
	c-0.1,0.1-0.2,0.1-0.2,0.2c-0.1,0.1-0.2,0.3-0.1,0.4c0,0,0,0.1,0.1,0.1c0.1,0,0.1-0.3,0.2-0.3c0.1,0,0.2-0.1,0.3-0.1
	c0,0,0.1,0,0.2-0.1C12.4,40.3,12.3,39.9,12.1,39.7 M13.4,39.6c-0.2,0-0.3,0-0.5,0c-0.1,0-0.2,0-0.3,0c-0.1,0-0.2,0-0.2,0
	c-0.1,0-0.2,0-0.3,0c0,0,0,0,0,0c0,0,0.1,0.1,0.1,0.1c0.3,0.2,0.5,0.2,0.8,0.2c0,0,0.1,0,0.1,0c0,0,0,0,0,0c0,0,0,0,0,0
	c-0.2,0.1-0.3,0.2-0.4,0.4c-0.3,0.3-0.6,0.6-0.9,1c-0.1,0.1-0.2,0.2-0.2,0.3c-0.1,0.1-0.2,0.2-0.2,0.2c0,0-0.1,0-0.1,0
	C11,41.6,11,41.4,11,41.2c0,0,0,0,0,0c0,0,0,0,0,0c0,0,0,0,0,0c0,0,0,0,0,0c0,0,0,0.1,0,0.1c0,0.1,0,0.2,0,0.3c0,0,0,0.1,0,0.1
	c0,0.1,0,0.1,0,0.2c0,0.1,0,0.2,0,0.3c0,0,0,0.1,0.1,0.1c0,0,0,0.1,0.1,0.1c0,0,0.1,0,0.1,0c0.1-0.1,0.1-0.1,0.2-0.2
	c0.1-0.1,0.3-0.3,0.4-0.4c0,0,0.1-0.2,0.2-0.2c0,0,0,0,0,0c0,0,0,0,0-0.1c0.1-0.2,0.3-0.3,0.4-0.5c0.1-0.1,0.2-0.2,0.3-0.3
	c0.1-0.1,0.1-0.1,0.2-0.2c0.2-0.1,0.3-0.2,0.5-0.3c0.1-0.1,0.2-0.1,0.2-0.2C13.6,39.8,13.5,39.7,13.4,39.6 M12.5,38.7
	c-0.1,0.1-0.1,0.2-0.2,0.2c-0.1,0.1-0.1,0.1-0.2,0.1c0,0,0,0,0,0c0.1,0,0.1,0,0.2,0C12.5,39.1,12.6,38.8,12.5,38.7 M12.7,38.2
	c0.1,0.1,0,0.2,0,0.3c0,0,0,0.1,0,0.1c0,0,0,0.1,0,0.1c0,0.1,0,0.2,0,0.3c0,0.1,0,0.1,0,0.2c0,0.1-0.2,0.2-0.3,0.2
	c-0.1,0-0.2,0-0.2-0.1c-0.1,0-0.3,0-0.4-0.1c-0.1,0-0.2,0-0.2,0c0,0-0.1,0.1-0.1,0.1c-0.1,0.1-0.3,0.1-0.5,0.1c0,0-0.1,0-0.1,0
	c0,0,0,0,0,0c0.1,0,0.2-0.1,0.2-0.1c0,0,0,0,0,0c-0.1,0-0.3-0.1-0.4-0.2c0,0,0,0,0,0c-0.1,0-0.1,0.1-0.1,0.1
	c-0.1,0.1-0.1,0.1-0.2,0.2c0,0-0.1,0-0.1,0.1c0,0-0.1,0-0.1,0.1c0,0-0.1,0-0.1,0.1c-0.1,0.1-0.2,0.2-0.3,0.2C9.7,40,9.6,40,9.5,40
	c-0.1,0-0.1,0.1-0.2,0.2c0,0-0.1,0-0.1,0.1c0,0,0,0-0.1,0c-0.1,0.1-0.2,0.1-0.3,0.2c0,0-0.1,0-0.1,0.1c0,0,0,0-0.1,0
	c0,0-0.1-0.2-0.1-0.2c0,0,0-0.1,0-0.1c0.1-0.1,0.2-0.2,0.3-0.4c0.2-0.2,0.4-0.5,0.7-0.7C9.7,39,9.9,39,10,38.9c0,0,0,0,0,0
	c0,0,0,0,0,0c0,0,0,0,0,0c0,0.1-0.1,0.1-0.1,0.2c-0.1,0.1-0.1,0.3-0.2,0.4c0,0.1-0.1,0.2-0.1,0.2c0,0,0,0,0,0c0,0,0,0,0,0
	c0.1,0,0.2-0.1,0.3-0.2c0.1-0.1,0.2-0.1,0.3-0.2c0.1,0,0.1-0.1,0.2-0.1c0.1-0.1,0.1-0.2,0.2-0.3c0.1-0.1,0.3,0,0.5,0
	c0.1,0,0.2,0,0.4,0c0.1,0,0.2,0,0.2,0c0.1-0.1,0.2-0.2,0.3-0.3c0.1-0.1,0.3-0.2,0.4-0.3C12.5,38.3,12.6,38.2,12.7,38.2 M11.9,37.1
	c0.2,0.2,0,0.6-0.1,0.8c-0.1,0.1-0.2,0.2-0.3,0.2c-0.1,0-0.2,0.1-0.4,0.1c0,0,0,0,0,0c0,0,0,0,0,0c0,0,0,0,0,0c0,0,0,0,0,0
	c0,0,0,0,0,0c0.3-0.1,0.5-0.4,0.6-0.6C11.8,37.4,11.8,37.2,11.9,37.1"/>
<path class="st0" d="M7.9,34.2c0.3,0.4,0.1,1-0.3,1.3c-0.4,0.3-1,0.1-1.3-0.3c-0.3-0.4-0.1-1,0.3-1.3C7.1,33.6,7.7,33.8,7.9,34.2"/>
<path class="st0" d="M41.3,34.2c0.3-0.4,0.8-0.6,1.3-0.3c0.4,0.3,0.6,0.8,0.3,1.3c-0.3,0.4-0.8,0.6-1.3,0.3
	C41.2,35.2,41,34.7,41.3,34.2"/>
<path class="st0" d="M24.6,1C11.6,1,1,11.6,1,24.6s10.6,23.6,23.6,23.6c13,0,23.6-10.6,23.6-23.6S37.6,1,24.6,1 M24.6,0
	c13.5,0,24.6,11,24.6,24.6s-11,24.6-24.6,24.6C11.1,49.2,0,38.1,0,24.6S11.1,0,24.6,0"/>
<path class="st0" d="M29.6,15.5L10.2,32.9h0h7.2l12.9-9.7l8.1,6.1l0,0h2l0,0L29.6,15.5L29.6,15.5L29.6,15.5z M24.7,14.2L10.2,29.3
	v0.2l0.2-0.2l16.7-12.6L24.7,14.2z M10.2,26v0.2l11.4-9.6l-1.9-1.5L10.2,26z M24.6,7.8c9.2,0,16.8,7.5,16.8,16.8
	c0,9.2-7.5,16.8-16.8,16.8c-9.2,0-16.8-7.5-16.8-16.8C7.9,15.4,15.4,7.8,24.6,7.8"/>
<path class="st0" d="M113.7,42h0.7l1.1,2.7l1.1-2.7h0.6l-2,4.9l-0.6,0l0.6-1.4L113.7,42z M158.5,43.7c0-0.3-0.1-0.6-0.3-0.9
	c-0.2-0.3-0.5-0.4-0.8-0.4c-0.3,0-0.6,0.1-0.8,0.4c-0.2,0.2-0.3,0.6-0.3,0.9c0,0.4,0.1,0.6,0.3,0.9c0.2,0.2,0.5,0.4,0.8,0.4
	c0.3,0,0.6-0.1,0.8-0.4C158.4,44.4,158.5,44,158.5,43.7 M158.6,45c-0.1,0.2-0.3,0.3-0.5,0.4c-0.2,0.1-0.5,0.2-0.8,0.2
	c-0.5,0-0.9-0.2-1.2-0.5c-0.3-0.4-0.5-0.8-0.5-1.3c0-0.5,0.2-1,0.5-1.3c0.3-0.4,0.8-0.5,1.3-0.5c0.3,0,0.5,0.1,0.7,0.2
	c0.2,0.1,0.4,0.2,0.5,0.4V42h0.6v3.5h-0.6V45z M186.1,45.5V42h0.6v0.5c0.3-0.4,0.7-0.6,1.2-0.6c0.2,0,0.4,0,0.6,0.1
	c0.2,0.1,0.3,0.2,0.4,0.3c0.1,0.1,0.2,0.3,0.2,0.4c0,0.1,0,0.3,0,0.6v2.2h-0.7v-2.1c0-0.2,0-0.4-0.1-0.5c-0.1-0.1-0.1-0.2-0.3-0.3
	c-0.1-0.1-0.3-0.1-0.5-0.1c-0.3,0-0.5,0.1-0.7,0.2c-0.2,0.2-0.3,0.5-0.3,0.9v1.9H186.1z M160.2,45.5V42h0.6v0.5
	c0.3-0.4,0.7-0.6,1.2-0.6c0.2,0,0.5,0,0.6,0.1c0.2,0.1,0.3,0.2,0.4,0.3c0.1,0.1,0.2,0.3,0.2,0.4c0,0.1,0,0.3,0,0.6v2.2h-0.7v-2.1
	c0-0.2,0-0.4-0.1-0.5c-0.1-0.1-0.1-0.2-0.3-0.3c-0.1-0.1-0.3-0.1-0.5-0.1c-0.3,0-0.5,0.1-0.7,0.2c-0.2,0.2-0.3,0.5-0.3,0.9v1.9
	H160.2z M142.1,45.5V42h0.6v0.5c0.3-0.4,0.7-0.6,1.2-0.6c0.2,0,0.5,0,0.6,0.1c0.2,0.1,0.3,0.2,0.4,0.3c0.1,0.1,0.2,0.3,0.2,0.4
	c0,0.1,0,0.3,0,0.6v2.2h-0.7v-2.1c0-0.2,0-0.4-0.1-0.5c-0.1-0.1-0.1-0.2-0.3-0.3c-0.1-0.1-0.3-0.1-0.5-0.1c-0.3,0-0.5,0.1-0.7,0.2
	c-0.2,0.2-0.3,0.5-0.3,0.9v1.9H142.1z M89,45.5V42h0.6v0.5c0.3-0.4,0.7-0.6,1.2-0.6c0.2,0,0.4,0,0.6,0.1c0.2,0.1,0.3,0.2,0.4,0.3
	c0.1,0.1,0.2,0.3,0.2,0.4c0,0.1,0,0.3,0,0.6v2.2h-0.7v-2.1c0-0.2,0-0.4-0.1-0.5c-0.1-0.1-0.1-0.2-0.3-0.3c-0.1-0.1-0.3-0.1-0.5-0.1
	c-0.3,0-0.5,0.1-0.7,0.2c-0.2,0.2-0.3,0.5-0.3,0.9v1.9H89z M201,43.7c0,0.5,0.1,0.8,0.3,1c0.2,0.2,0.5,0.3,0.8,0.3
	c0.3,0,0.6-0.1,0.8-0.3c0.2-0.2,0.3-0.5,0.3-1c0-0.4-0.1-0.8-0.3-1c-0.2-0.2-0.5-0.3-0.8-0.3c-0.3,0-0.6,0.1-0.8,0.3
	C201.1,43,201,43.3,201,43.7 M200.4,45.8h0.6c0,0.2,0.1,0.4,0.2,0.5c0.2,0.1,0.4,0.2,0.7,0.2c0.3,0,0.6-0.1,0.7-0.2
	c0.2-0.1,0.3-0.3,0.3-0.5c0-0.1,0.1-0.4,0-0.8c-0.3,0.3-0.7,0.5-1.1,0.5c-0.6,0-1-0.2-1.3-0.5c-0.3-0.3-0.5-0.8-0.5-1.3
	c0-0.3,0.1-0.6,0.2-0.9c0.1-0.3,0.3-0.5,0.6-0.7c0.3-0.2,0.6-0.2,0.9-0.2c0.5,0,0.9,0.2,1.2,0.5V42h0.6v3c0,0.5-0.1,0.9-0.2,1.2
	c-0.1,0.2-0.3,0.4-0.6,0.5c-0.3,0.1-0.6,0.2-1,0.2c-0.5,0-0.9-0.1-1.2-0.3C200.5,46.5,200.4,46.1,200.4,45.8 M194.5,40.7h0.6v4.8
	h-0.6V40.7z M182.1,45.5v-4.8h0.6v1.7c0.3-0.3,0.7-0.5,1.1-0.5c0.3,0,0.5,0.1,0.7,0.2c0.2,0.1,0.3,0.2,0.4,0.4s0.1,0.4,0.1,0.8v2.2
	h-0.6v-2.2c0-0.3-0.1-0.5-0.2-0.6c-0.1-0.1-0.3-0.2-0.6-0.2c-0.2,0-0.4,0-0.5,0.1c-0.2,0.1-0.3,0.2-0.3,0.4
	c-0.1,0.2-0.1,0.4-0.1,0.6v1.9H182.1z M171.2,45.5v-4.2h-1.6v-0.6h3.8v0.6h-1.6v4.2H171.2z M138.4,43.4h2.2c0-0.3-0.1-0.5-0.2-0.7
	c-0.2-0.2-0.5-0.3-0.8-0.3c-0.3,0-0.6,0.1-0.8,0.3C138.5,42.9,138.4,43.1,138.4,43.4 M140.6,44.4l0.7,0.1c-0.1,0.4-0.3,0.6-0.6,0.8
	c-0.3,0.2-0.7,0.3-1.1,0.3c-0.6,0-1-0.2-1.4-0.5c-0.3-0.3-0.5-0.8-0.5-1.3c0-0.6,0.2-1,0.5-1.4c0.3-0.3,0.8-0.5,1.3-0.5
	c0.5,0,0.9,0.2,1.3,0.5c0.3,0.3,0.5,0.8,0.5,1.3c0,0,0,0.1,0,0.2h-2.9c0,0.4,0.1,0.7,0.4,0.9c0.2,0.2,0.5,0.3,0.8,0.3
	c0.2,0,0.4-0.1,0.6-0.2C140.3,44.8,140.5,44.6,140.6,44.4 M136.1,42h0.6v3.5h-0.6V42z M136.1,40.7h0.6v0.7h-0.6V40.7z M134.6,44.2
	l0.7,0.1c-0.1,0.4-0.3,0.7-0.5,0.9c-0.3,0.2-0.7,0.3-1.1,0.3c-0.5,0-1-0.2-1.3-0.5c-0.3-0.3-0.5-0.8-0.5-1.3c0-0.4,0.1-0.7,0.2-1
	c0.1-0.3,0.4-0.5,0.6-0.6c0.3-0.1,0.6-0.2,0.9-0.2c0.4,0,0.8,0.1,1,0.3c0.3,0.2,0.4,0.5,0.5,0.8l-0.6,0.1c-0.1-0.2-0.2-0.4-0.3-0.5
	c-0.2-0.1-0.3-0.2-0.6-0.2c-0.3,0-0.6,0.1-0.8,0.3c-0.2,0.2-0.3,0.6-0.3,1c0,0.5,0.1,0.8,0.3,1c0.2,0.2,0.5,0.3,0.8,0.3
	c0.3,0,0.5-0.1,0.7-0.2C134.4,44.8,134.5,44.5,134.6,44.2 M127.2,44l0.6-0.1c0,0.2,0.1,0.4,0.2,0.6c0.1,0.2,0.3,0.3,0.5,0.4
	c0.2,0.1,0.5,0.1,0.7,0.1c0.2,0,0.5,0,0.6-0.1c0.2-0.1,0.3-0.2,0.4-0.3c0.1-0.1,0.1-0.3,0.1-0.4c0-0.2,0-0.3-0.1-0.4
	c-0.1-0.1-0.2-0.2-0.4-0.3c-0.1-0.1-0.4-0.1-0.9-0.2c-0.4-0.1-0.8-0.2-0.9-0.3c-0.2-0.1-0.4-0.3-0.5-0.5c-0.1-0.2-0.2-0.4-0.2-0.6
	c0-0.2,0.1-0.5,0.2-0.7c0.1-0.2,0.3-0.4,0.6-0.5c0.3-0.1,0.6-0.2,0.9-0.2c0.4,0,0.7,0.1,0.9,0.2c0.3,0.1,0.5,0.3,0.6,0.5
	c0.1,0.2,0.2,0.5,0.2,0.8l-0.6,0c0-0.3-0.1-0.5-0.3-0.7c-0.2-0.2-0.5-0.2-0.8-0.2c-0.4,0-0.7,0.1-0.8,0.2c-0.2,0.1-0.3,0.3-0.3,0.5
	c0,0.2,0.1,0.3,0.2,0.4c0.1,0.1,0.4,0.2,1,0.3c0.5,0.1,0.9,0.2,1.1,0.3c0.3,0.1,0.5,0.3,0.6,0.5c0.1,0.2,0.2,0.4,0.2,0.7
	c0,0.3-0.1,0.5-0.2,0.7c-0.1,0.2-0.4,0.4-0.6,0.5c-0.3,0.1-0.6,0.2-0.9,0.2c-0.4,0-0.8-0.1-1.1-0.2c-0.3-0.1-0.5-0.3-0.7-0.6
	C127.3,44.6,127.2,44.3,127.2,44 M123.6,45.5v-3h-0.5V42h0.5v-0.4c0-0.2,0-0.4,0.1-0.5c0.1-0.2,0.2-0.3,0.3-0.4
	c0.2-0.1,0.3-0.1,0.6-0.2c0.1,0,0.3,0,0.5,0v0.6c-0.2,0-0.3,0-0.4,0c-0.2,0-0.3,0-0.4,0.1c-0.1,0.1-0.1,0.2-0.1,0.4V42h0.7v0.5h-0.7
	v3H123.6z M113.1,45l0,0.5c-0.2,0-0.3,0.1-0.4,0.1c-0.2,0-0.4,0-0.5-0.1c-0.1-0.1-0.2-0.2-0.3-0.3c0-0.1-0.1-0.3-0.1-0.7v-2h-0.4V42
	h0.4v-0.9l0.6-0.4V42h0.6v0.5h-0.6v2.1c0,0.2,0,0.3,0,0.3c0,0,0.1,0.1,0.1,0.1c0,0,0.1,0,0.2,0C112.8,45,112.9,45,113.1,45
	 M109.5,42h0.6v3.5h-0.6V42z M109.5,40.7h0.6v0.7h-0.6V40.7z M105.5,44.5l0.6-0.1c0,0.2,0.1,0.4,0.3,0.5c0.1,0.1,0.4,0.2,0.6,0.2
	c0.3,0,0.5-0.1,0.6-0.2c0.1-0.1,0.2-0.2,0.2-0.4c0-0.1-0.1-0.2-0.2-0.3c-0.1-0.1-0.3-0.1-0.6-0.2c-0.4-0.1-0.7-0.2-0.9-0.3
	c-0.2-0.1-0.3-0.2-0.4-0.3c-0.1-0.1-0.1-0.3-0.1-0.5c0-0.2,0-0.3,0.1-0.4c0.1-0.1,0.2-0.2,0.3-0.3c0.1-0.1,0.2-0.1,0.4-0.2
	c0.2,0,0.3-0.1,0.5-0.1c0.3,0,0.5,0,0.7,0.1c0.2,0.1,0.4,0.2,0.5,0.3c0.1,0.1,0.2,0.3,0.2,0.5l-0.6,0.1c0-0.2-0.1-0.3-0.2-0.4
	c-0.1-0.1-0.3-0.2-0.5-0.2c-0.3,0-0.5,0-0.6,0.1c-0.1,0.1-0.2,0.2-0.2,0.3c0,0.1,0,0.1,0.1,0.2c0,0.1,0.1,0.1,0.2,0.2
	c0.1,0,0.2,0.1,0.5,0.2c0.4,0.1,0.7,0.2,0.9,0.3c0.2,0.1,0.3,0.2,0.4,0.3c0.1,0.1,0.1,0.3,0.1,0.5c0,0.2-0.1,0.4-0.2,0.6
	c-0.1,0.2-0.3,0.3-0.5,0.4c-0.2,0.1-0.5,0.1-0.7,0.1c-0.5,0-0.8-0.1-1-0.3C105.7,45.1,105.6,44.8,105.5,44.5 M96.1,45.5L94.8,42h0.6
	l0.8,2.1c0.1,0.2,0.2,0.5,0.2,0.7c0.1-0.2,0.1-0.4,0.2-0.7l0.8-2.1H98l-1.3,3.5H96.1z M93.3,42h0.6v3.5h-0.6V42z M93.3,40.7h0.6v0.7
	h-0.6V40.7z M87.2,40.7h0.6v2.8c0,0.5-0.1,0.9-0.2,1.2c-0.1,0.3-0.3,0.5-0.6,0.7c-0.3,0.2-0.7,0.3-1.1,0.3c-0.5,0-0.8-0.1-1.1-0.2
	c-0.3-0.2-0.5-0.4-0.6-0.7c-0.1-0.3-0.2-0.7-0.2-1.2v-2.8h0.6v2.8c0,0.4,0,0.7,0.1,0.9c0.1,0.2,0.2,0.4,0.4,0.5
	c0.2,0.1,0.4,0.2,0.7,0.2c0.5,0,0.8-0.1,1-0.3c0.2-0.2,0.3-0.6,0.3-1.2V40.7z M196.6,43.8c0,0.4,0.1,0.7,0.3,0.9
	c0.2,0.3,0.5,0.4,0.8,0.4c0.3,0,0.6-0.1,0.8-0.4c0.2-0.3,0.3-0.6,0.3-1c0,0,0-0.1,0-0.1c0-0.3-0.1-0.6-0.3-0.8
	c-0.2-0.2-0.5-0.4-0.8-0.4c-0.3,0-0.6,0.1-0.8,0.4C196.7,43.1,196.6,43.4,196.6,43.8 M196,43.8c0-0.5,0.2-0.9,0.5-1.3
	c0.3-0.4,0.7-0.5,1.2-0.5c0.5,0,0.9,0.2,1.2,0.5c0.3,0.4,0.5,0.8,0.5,1.3c0,0.5-0.2,1-0.5,1.3c-0.3,0.4-0.7,0.5-1.2,0.5
	c-0.5,0-0.9-0.2-1.2-0.5C196.2,44.7,196,44.3,196,43.8 M103.7,45.5h-0.6V42h0.6v0.4c0.2-0.2,0.4-0.3,0.6-0.4
	c0.2-0.1,0.4-0.1,0.7-0.1l0,0.6c-0.4,0-0.7,0.1-0.9,0.2c-0.2,0.1-0.3,0.4-0.3,0.7V45.5z M204.7,42h0.7l1.1,2.7l1.1-2.7h0.6l-2,4.9
	l-0.6,0l0.6-1.4L204.7,42z M166.7,43.8c0-0.3-0.1-0.6-0.3-0.9c-0.2-0.2-0.5-0.4-0.8-0.4c-0.3,0-0.6,0.1-0.8,0.3
	c-0.2,0.2-0.3,0.5-0.3,0.8c0,0.3,0.1,0.6,0.3,0.9c0.2,0.2,0.5,0.4,0.8,0.4c0.3,0,0.5-0.1,0.7-0.4C166.6,44.3,166.7,44.1,166.7,43.8
	 M166.9,42.5v-0.8v-0.9h0.6v4.8h-0.6V45c-0.1,0.2-0.4,0.3-0.6,0.5c-0.2,0.1-0.4,0.2-0.7,0.2c-0.5,0-0.9-0.2-1.2-0.5
	c-0.3-0.4-0.5-0.8-0.5-1.3c0-0.5,0.2-1,0.5-1.3c0.3-0.4,0.7-0.5,1.2-0.5c0.3,0,0.5,0.1,0.7,0.2C166.5,42.1,166.7,42.3,166.9,42.5
	 M190.7,43.8c0,0.4,0.1,0.7,0.3,0.9c0.2,0.3,0.5,0.4,0.8,0.4c0.3,0,0.6-0.1,0.8-0.4c0.2-0.3,0.3-0.6,0.3-1c0,0,0-0.1,0-0.1
	c0-0.3-0.1-0.6-0.3-0.8c-0.2-0.2-0.5-0.4-0.8-0.4c-0.3,0-0.5,0.1-0.8,0.4C190.8,43.1,190.7,43.4,190.7,43.8 M190.1,43.8
	c0-0.5,0.2-0.9,0.5-1.3c0.3-0.4,0.7-0.5,1.2-0.5c0.5,0,0.9,0.2,1.2,0.5c0.3,0.4,0.5,0.8,0.5,1.3c0,0.5-0.2,1-0.5,1.3
	c-0.3,0.4-0.7,0.5-1.2,0.5c-0.5,0-0.9-0.2-1.2-0.5C190.3,44.7,190.1,44.3,190.1,43.8 M119.6,43.8c0,0.4,0.1,0.7,0.3,0.9
	s0.5,0.4,0.8,0.4c0.3,0,0.6-0.1,0.8-0.4c0.2-0.3,0.3-0.6,0.3-1c0,0,0-0.1,0-0.1c0-0.3-0.1-0.6-0.3-0.8c-0.2-0.2-0.5-0.4-0.8-0.4
	c-0.3,0-0.5,0.1-0.8,0.4C119.7,43.1,119.6,43.4,119.6,43.8 M119,43.8c0-0.5,0.2-0.9,0.5-1.3c0.3-0.4,0.7-0.5,1.2-0.5
	c0.5,0,0.9,0.2,1.2,0.5c0.3,0.4,0.5,0.8,0.5,1.3c0,0.5-0.2,1-0.5,1.3c-0.3,0.4-0.7,0.5-1.2,0.5c-0.5,0-0.9-0.2-1.2-0.5
	C119.2,44.7,119,44.3,119,43.8 M150.6,43.4h2.2c0-0.3-0.1-0.5-0.2-0.7c-0.2-0.2-0.5-0.3-0.8-0.3c-0.3,0-0.6,0.1-0.8,0.3
	C150.8,42.9,150.7,43.1,150.6,43.4 M152.8,44.4l0.7,0.1c-0.1,0.4-0.3,0.6-0.6,0.8c-0.3,0.2-0.7,0.3-1.1,0.3c-0.6,0-1-0.2-1.4-0.5
	c-0.3-0.3-0.5-0.8-0.5-1.3c0-0.6,0.2-1,0.5-1.4c0.3-0.3,0.8-0.5,1.3-0.5c0.5,0,0.9,0.2,1.3,0.5c0.3,0.3,0.5,0.8,0.5,1.3
	c0,0,0,0.1,0,0.2h-2.9c0,0.4,0.1,0.7,0.4,0.9c0.2,0.2,0.5,0.3,0.8,0.3c0.2,0,0.4-0.1,0.6-0.2C152.6,44.8,152.7,44.6,152.8,44.4
	 M99.3,43.4h2.2c0-0.3-0.1-0.5-0.2-0.7c-0.2-0.2-0.5-0.3-0.8-0.3c-0.3,0-0.6,0.1-0.8,0.3C99.4,42.9,99.3,43.1,99.3,43.4 M101.4,44.4
	l0.7,0.1c-0.1,0.4-0.3,0.6-0.6,0.8c-0.3,0.2-0.7,0.3-1.1,0.3c-0.6,0-1-0.2-1.4-0.5c-0.3-0.3-0.5-0.8-0.5-1.3c0-0.6,0.2-1,0.5-1.4
	c0.3-0.3,0.8-0.5,1.3-0.5c0.5,0,0.9,0.2,1.3,0.5c0.3,0.3,0.5,0.8,0.5,1.3c0,0,0,0.1,0,0.2h-2.9c0,0.4,0.1,0.7,0.4,0.9
	c0.2,0.2,0.5,0.3,0.8,0.3c0.2,0,0.4-0.1,0.6-0.2C101.2,44.8,101.3,44.6,101.4,44.4 M174.3,43.4h2.2c0-0.3-0.1-0.5-0.2-0.7
	c-0.2-0.2-0.5-0.3-0.8-0.3c-0.3,0-0.6,0.1-0.8,0.3C174.4,42.9,174.3,43.1,174.3,43.4 M176.4,44.4l0.7,0.1c-0.1,0.4-0.3,0.6-0.6,0.8
	c-0.3,0.2-0.7,0.3-1.1,0.3c-0.6,0-1-0.2-1.4-0.5c-0.3-0.3-0.5-0.8-0.5-1.3c0-0.6,0.2-1.1,0.5-1.4c0.3-0.3,0.8-0.5,1.3-0.5
	c0.5,0,0.9,0.2,1.3,0.5c0.3,0.3,0.5,0.8,0.5,1.3c0,0,0,0.1,0,0.2h-2.9c0,0.4,0.1,0.7,0.4,0.9c0.2,0.2,0.5,0.3,0.8,0.3
	c0.2,0,0.4-0.1,0.6-0.2C176.2,44.8,176.3,44.6,176.4,44.4 M148.8,44.2l0.7,0.1c-0.1,0.4-0.3,0.7-0.5,0.9c-0.3,0.2-0.7,0.3-1.1,0.3
	c-0.5,0-1-0.2-1.3-0.5c-0.3-0.3-0.5-0.8-0.5-1.3c0-0.4,0.1-0.7,0.2-1c0.1-0.3,0.4-0.5,0.6-0.6c0.3-0.1,0.6-0.2,0.9-0.2
	c0.4,0,0.8,0.1,1,0.3c0.3,0.2,0.4,0.5,0.5,0.8l-0.6,0.1c-0.1-0.2-0.2-0.4-0.3-0.5c-0.2-0.1-0.3-0.2-0.6-0.2c-0.3,0-0.6,0.1-0.8,0.3
	c-0.2,0.2-0.3,0.6-0.3,1c0,0.5,0.1,0.8,0.3,1c0.2,0.2,0.5,0.3,0.8,0.3c0.3,0,0.5-0.1,0.7-0.2C148.6,44.8,148.7,44.5,148.8,44.2
	 M180.6,44.2l0.7,0.1c-0.1,0.4-0.3,0.7-0.5,0.9c-0.3,0.2-0.7,0.3-1.1,0.3c-0.5,0-1-0.2-1.3-0.5c-0.3-0.3-0.5-0.8-0.5-1.3
	c0-0.4,0.1-0.7,0.2-1c0.1-0.3,0.4-0.5,0.6-0.6c0.3-0.1,0.6-0.2,0.9-0.2c0.4,0,0.8,0.1,1,0.3c0.3,0.2,0.4,0.5,0.5,0.8l-0.6,0.1
	c-0.1-0.2-0.2-0.4-0.3-0.5c-0.2-0.1-0.3-0.2-0.6-0.2c-0.3,0-0.6,0.1-0.8,0.3c-0.2,0.2-0.3,0.6-0.3,1c0,0.5,0.1,0.8,0.3,1
	c0.2,0.2,0.5,0.3,0.8,0.3c0.3,0,0.5-0.1,0.7-0.2C180.5,44.8,180.6,44.5,180.6,44.2 M78,45.5V42h0.6v0.5c0.3-0.4,0.7-0.6,1.2-0.6
	c0.2,0,0.4,0,0.6,0.1c0.2,0.1,0.3,0.2,0.4,0.3c0.1,0.1,0.2,0.3,0.2,0.4c0,0.1,0,0.3,0,0.6v2.2h-0.7v-2.1c0-0.2,0-0.4-0.1-0.5
	c-0.1-0.1-0.1-0.2-0.3-0.3c-0.1-0.1-0.3-0.1-0.5-0.1c-0.3,0-0.5,0.1-0.7,0.2c-0.2,0.2-0.3,0.5-0.3,0.9v1.9H78z M69.6,45.5V42h0.6
	v0.5c0.3-0.4,0.7-0.6,1.2-0.6c0.2,0,0.4,0,0.6,0.1c0.2,0.1,0.3,0.2,0.4,0.3c0.1,0.1,0.2,0.3,0.2,0.4c0,0.1,0,0.3,0,0.6v2.2h-0.7
	v-2.1c0-0.2,0-0.4-0.1-0.5c-0.1-0.1-0.1-0.2-0.3-0.3c-0.1-0.1-0.3-0.1-0.5-0.1c-0.3,0-0.5,0.1-0.7,0.2c-0.2,0.2-0.3,0.5-0.3,0.9v1.9
	H69.6z M68,45.5V45c-0.3,0.4-0.7,0.6-1.2,0.6c-0.2,0-0.4,0-0.6-0.1c-0.2-0.1-0.3-0.2-0.4-0.3c-0.1-0.1-0.2-0.3-0.2-0.4
	c0-0.1,0-0.3,0-0.6V42h0.7V44c0,0.3,0,0.5,0,0.6c0,0.2,0.1,0.3,0.3,0.4c0.1,0.1,0.3,0.1,0.5,0.1c0.2,0,0.4,0,0.5-0.1
	c0.2-0.1,0.3-0.2,0.4-0.4c0.1-0.2,0.1-0.4,0.1-0.7V42h0.7v3.5H68z M60.5,45.5v-4.8h0.6v2h2.5v-2h0.6v4.8h-0.6v-2.3h-2.5v2.3H60.5z
	 M76.3,43.7c0-0.3-0.1-0.6-0.3-0.9c-0.2-0.3-0.5-0.4-0.8-0.4c-0.3,0-0.6,0.1-0.8,0.4c-0.2,0.2-0.3,0.6-0.3,0.9
	c0,0.4,0.1,0.6,0.3,0.9c0.2,0.2,0.5,0.4,0.8,0.4c0.3,0,0.6-0.1,0.8-0.4C76.2,44.4,76.3,44,76.3,43.7 M76.4,45
	c-0.1,0.2-0.3,0.3-0.5,0.4c-0.2,0.1-0.5,0.2-0.8,0.2c-0.5,0-0.9-0.2-1.2-0.5c-0.3-0.4-0.5-0.8-0.5-1.3c0-0.5,0.2-1,0.5-1.3
	c0.3-0.4,0.8-0.5,1.3-0.5c0.3,0,0.5,0.1,0.7,0.2c0.2,0.1,0.4,0.2,0.5,0.4V42H77v3.5h-0.6V45z"/>
<path class="st0" d="M177.3,9.8c0.5,0,0.6,0.7,0.7,1.1c0.1,0.2,0.3,0.5,0.3,0.8c0.1,0.4,0.2,1.1,0.2,1.7c0,0.2-0.1,0.9-0.1,1.1
	c0,0.5,0,0.8,0,1.2c0,0.3-0.1,0.7-0.1,0.9c0,0.2-0.2,1.4-0.1,1.5c0,0,0.1,0.1,0.1,0.1c0.4,0,0.7-0.4,1-0.6c0.5-0.3,0.6-0.5,1-0.9
	c0.2-0.2,0.5-0.8,0.6-1c0.4-0.6,0.4-0.7,0.5-1.3c0-0.4,0-0.5,0-0.9c-0.1-0.4-0.2-0.7-0.3-0.9c-0.1-0.4,0.5,0,0.5,0.1
	c0.3,0.5,0.7,1.6,0.4,2.4c-0.1,0.3-0.3,0.7-0.4,1.1c-0.1,0.2-0.2,0.6-0.4,0.8c-0.4,0.5-0.5,0.7-0.8,1c-0.4,0.4-0.4,0.4-0.6,0.9
	c-0.4,0.7-0.5,1.4-0.9,2.1c-0.5,0.9-0.7,1.2-1.3,1.9c-0.3,0.3-0.5,0.6-0.8,0.9c-0.2,0.1-0.3,0.2-0.4,0.4c-0.1,0.1-0.1,0.3-0.2,0.4
	c-0.3,0.8-0.8,1.6-1.2,2.3c-0.1,0.3-0.7,0.8-0.3,0.9c0.2,0.1,0.4,0.1,0.8,0c0.4-0.1,0.8-0.2,1.1-0.2c0.3-0.1,1.9-0.2,2.4-0.2
	c1.1,0,1.6,0,2.5,0.3c0.3,0.2,1,0.8,0.9,1.4c0,0.1-0.4,0.1-0.6,0.2c-0.3,0.1-0.2,0.3-1,0.7c-0.6,0.4-0.7,0.5-1.3,0.8
	c-0.1,0-0.8,0.4-0.9,0.3c0-0.1,0-0.1,0-0.2c0.2-0.2,0.6-0.5,0.8-0.7c0.2-0.3,0.7-0.9,0.7-1.1c0.1-0.6-0.9-0.6-1.8-0.6
	c-0.4,0-0.6-0.1-1.2-0.2c-0.4,0-1.2,0-1.6,0c-0.4,0-0.9-0.1-1.1,0.1c-0.4,0.5-0.6,1.1-1,1.5c-0.2,0.2-0.5,0.2-0.7,0.3
	c-0.4,0.3-0.6,0.7-1.1,0.9c-0.2,0.1-0.7,0.2-0.8,0.1c-0.7-0.4-0.3-1.2,0-1.7c0.6-0.9,1.2-2.2,1.6-3.3c0.1-0.2,0.5-1.2,0.5-1.3
	c-0.2-0.8-0.9-0.2-1.4-0.2c-0.3,0-1.1,0.2-1.4,0.2c-0.3,0.1-1.5,0.2-1.8,0.1c-0.3-0.1-0.5-0.2-0.8-0.3c-0.1,0-0.4-0.4-0.4-0.5
	c-0.1-0.3-0.1-0.6,0.1-0.7c0.3-0.3,1-0.3,1.3-0.5c1.3-0.5,2.5-0.7,3.7-1.4c0.5-0.3,0.7-0.3,1.2-0.6c0.5-0.3,0.7-0.3,1-0.8
	c0.1-0.2,0.3-1.1,0.4-1.4c0.2-0.7,0.2-1.1,0.4-1.8c0.1-0.4,0.4-1.3,0.4-1.8c0.1-0.6,0.4-1.3,0.5-1.9c0.1-0.5,0.2-0.9,0.3-1.4
	c0.1-0.5,0.2-1,0.3-1.5C176.8,10.1,177,9.8,177.3,9.8 M202.4,1c0.1,0.1,0.4,0.3,0.5,0.3c0.6,0.5,0.8,1.1,0.9,2.2
	c0,0.3-0.1,0.7-0.2,1c-0.5,1.1-2,2.1-2.8,3c-0.2,0.3-1,0.9-0.9,1.3c0.1,0.3,1,0.1,1.3,0.2c0.3,0.1,0.6,0.3,0.8,0.6
	c0.2,0.2,0.3,0.3,0.7,0.1c0.6-0.2,1.2-0.6,1.8-0.9c0.9-0.4,1.6-0.6,2.7-0.9c0.5-0.1,1.6-0.3,2.1,0c0.2,0.1,0.5,0.7,0.4,1
	c-0.1,0.5-0.5,0.9-0.8,1.3c-0.5,0.6-0.9,1.3-1.3,2c-0.9,1.1-1.5,2-2.5,3.1c-0.1,0.1-0.4,0.5-0.6,0.6c-0.3,0.2,0,0.5,0.4,0.6
	c0.3,0,0.8,0.1,0.9,0.6c0.1,0.6,0.1,1-0.7,1.9c-0.3,0.3-0.6,1-1.1,1.4c-0.4,0.3-0.5,0.5-0.9,0.7c-0.3,0.2-0.7,0.6-1.1,0.8
	c-0.5,0.3-0.9,0.6-1.4,0.8c-0.4,0.2-0.7,0.5-1.1,0.7c-0.3,0.2-0.8,0.5-0.7,1.1c0.1,0.2,1-0.2,1.4-0.3c1-0.3,2.1-0.3,3.2-0.2
	c0.2,0,0.8,0.1,1,0.3c0.2,0.2,0.8,0.6,0.6,1c-0.1,0.3-0.6,0.4-0.8,0.5c-0.2,0.2-0.5,0.4-0.7,0.5c-0.1,0.1-0.5,0.3-0.6,0.3
	c-0.5,0.3-0.9,0.4-1.4,0.7c-0.2,0.1-1,0.3-1.1,0.1c0-0.1,0.2-0.2,0.4-0.3c0.4-0.3,1-0.7,1.3-1.2c0.2-0.2,0.6-0.4,0.4-0.6
	c-0.4-0.5-2.3,0.4-2.7,0.6c-0.3,0.1-0.6,0.2-0.7,0.4c-0.1,0.3,0.2,1,0.3,1.3c0.1,0.4,0.2,1.1,0.2,1.5c0,0.2,0.1,0.5,0.1,0.7
	c0.1,0.6,0.1,1.5,0.2,2.1c0,0.3,0,1.4,0,1.6c0,0.6,0.1,0.8-0.1,1.3c-0.2,0.7-0.7,0.7-1.5,0.7c-0.2,0-0.6-0.1-0.8-0.1
	c-0.9-0.2-1.8-0.5-2.5-0.8c-0.4-0.2-1.7-0.9-1.8-1.1c0,0-0.1-0.1,0-0.1c0,0,0.1,0,0.1,0c0.2,0,0.7,0.2,0.9,0.3
	c1,0.3,3.2,0.8,4.1,0.3c0.5-0.3,0.6-0.6,0.6-1.3c0-0.5,0-1.2,0-1.6c0-0.8,0-1.7-0.1-2.5c0-0.3-0.1-1.2-0.2-1.6
	c0-0.1-0.1-0.1-0.2-0.2c-0.1-0.1-1.8,0.6-2.2,0.8c-0.4,0.2-0.9,0.4-1.3,0.5c-0.3,0.1-0.6,0.3-0.9,0.4c-0.2,0.1-0.8,0.3-1,0.5
	c-0.6,0.4-1,0.6-1.5,0.9c-0.3,0.1-0.5,0.2-0.8,0.2c-0.1,0-1,0-1.1-0.2c-0.1-0.1-0.1-0.3-0.1-0.4c0-0.1-0.1-0.3,0-0.4
	c0.1-0.2,0.6-0.3,0.8-0.4c0.4-0.3,0.8-0.6,1.3-0.9c1.3-0.7,1.5-0.9,2.9-1.4c0.2-0.1,1.1-0.5,1.4-0.6c0.5-0.2,1.1-0.4,1.6-0.6
	c0.1-0.1,0.3-0.1,0.4-0.1c0.1,0,0.2-0.1,0.2-0.2c0.1-0.4,0.1-0.9,0.3-1.2c0.6-0.7,1-1.3,1.7-2c0.2-0.2,0.5-0.5,0.6-0.7
	c0.3-0.3,0.7-0.7,1.1-0.9c0.3-0.3,0.7-0.8,0.5-1c-0.1-0.1-1.2,0.6-1.5,0.7c-1.6,0.6-3.3,1.3-5.1,1.8c-0.4,0.1-2.2,0.5-2.4,0.1
	c0,0,0-0.1,0-0.1c0.2-0.2,0.4-0.2,0.7-0.3c0.4-0.2,0.9-0.5,1.4-0.7c0.8-0.3,1.7-0.7,2.4-1.1c0.8-0.4,1.5-0.7,2.3-1.1
	c0.5-0.2,1.7-0.7,1.6-1.1c0-0.2-0.1-0.4-0.2-0.4c-0.2,0-0.4,0.1-0.5,0.2c-0.4,0.2-0.7,0.3-1.1,0.3c-0.2,0-0.3,0-0.1-0.2
	c0.2-0.2,0.7-0.6,1-1c0.3-0.3,0.4-0.7,0.6-1.2c0.2-0.4,0.3-0.9,0.5-1.3c0.1-0.2,0.1-0.6,0.1-1c0-0.4,0.2-0.8,0.5-0.7
	c0.5,0.1,0.7,0.5,1,1c0.1,0.1,0.1,0.5,0,0.7c-0.1,0.2-0.3,0.7-0.4,0.9c-0.2,0.3-0.5,0.7-0.7,0.9c-0.2,0.3-0.8,0.7-0.7,0.9
	c0.1,0.2,0.4,0,0.7,0c0.4,0,0.7-0.5,1-0.8c0.6-0.8,1.1-1.4,1.7-2.4c0.4-0.7,0.9-1.4,1.4-2.2c0.2-0.3,1-1.5,0.6-1.6
	c-0.1,0-0.2-0.1-0.3,0c-0.5,0.1-1.4,0.6-1.8,0.8c-0.7,0.3-1.4,0.9-2.1,1.1c-0.4,0.2-0.9,0.3-1.3,0.5c-0.3,0.1-0.4,0.7-0.6,1
	c-0.2,0.3-0.4,0.6-0.7,0.9c-0.1,0.1-0.2,0.2-0.2,0.3c-0.2,0.4,0.6,1.1,0.4,1.6c0,0,0,0.1,0,0.1c-0.5,0-0.9-0.7-1.3-0.5
	c-0.4,0.2-0.5,0.6-0.8,0.9c-0.3,0.3-1.5,1.4-2.1,1.2c-0.1,0-0.3-0.1-0.2-0.1c0.1-0.1,0.5-0.5,0.7-0.7c0.4-0.5,0.9-0.9,1.3-1.5
	c0.1-0.2,0.4-0.4,0.4-0.7c0,0,0-0.2,0-0.2c0,0-0.1,0-0.2,0.1c-0.5,0.3-0.9,0.6-1.4,1c-0.1,0.1-0.1,0.2-0.2,0.3
	c-0.8,0.6-1.4,0.9-2.1,1.7c-0.3,0.4-0.3,1.1-0.6,1.6c0,0-0.2,0-0.3,0c-0.2-0.1-0.2-0.5-0.4-0.7c-0.1-0.1-0.3-0.3-0.4-0.4
	c-0.4-0.6-0.5-1.8-0.6-2.6c0-0.3-0.3-1.5-0.3-1.6c0.1-0.2,0.8,0.5,0.9,0.6c0.2,0.3,0.5,0.7,0.7,1.1c0.1,0.3,0.2,0.8,0.4,1
	c0.2,0.1,0.4,0,0.6-0.1c0.3-0.2,0.2-0.5,0.2-0.9c0-0.6,0-0.7-0.2-1.3c-0.1-0.4-0.3-1-0.4-1.4c-0.2-0.7-0.4-1.2-0.7-1.9
	c-0.2-0.4-0.5-1-0.7-1.4c-0.1-0.2-0.2-0.4-0.4-0.7c0,0,0-0.1,0-0.1c0.3-0.1,1.5,1.1,1.9,1.8c0.4,0.7,1,1.6,1.3,2.5
	c0.2,0.5,0.3,1.7,0.7,1.9c0.3,0.1,1.1-0.7,1.2-0.9c0.1-0.3-0.3-0.5-0.1-0.7c0.2-0.1,0.4,0.1,0.6,0.1c1-0.1,1-0.7,1.7-1.1
	c0.1-0.1,0.4-0.1,0.5-0.2c0.1-0.1,0.3-0.5,0.2-0.8c-0.2-0.3-0.6,0-0.9,0c-0.6,0.1-1.1,0-1.6,0.2c-0.3,0.1-0.5,0.3-0.7,0.4
	c-0.3,0.1-0.6,0-0.7-0.2c0,0,0,0,0,0c0.2-0.2,0.5-0.2,0.7-0.4c0,0,0-0.1,0-0.1c-0.2-0.3-1.3-0.4-1.2-0.6c0-0.1,0.1-0.3,0.1-0.3
	c0.3,0,0.7,0.1,1,0c0.3-0.1,0.6-0.2,0.9-0.2c0.2,0,0.2,0,0.4-0.1c0.6-0.3,1-1.3,1.4-1.7c0.7-0.9,1.5-1.8,1.9-2.6
	c0.3-0.5,0.6-1,0.7-1.7c0.2-0.8-0.2-1.5-0.3-2C202.1,0.9,202.2,0.8,202.4,1 M115.6,21.8c-0.1,0.5-0.2,0.8-0.3,1.3
	c-0.1,0.2-0.1,0.8-0.2,1c-0.1,0.5-0.1,0.9-0.1,1.3c0,0.1,0,0.4,0,0.4c0.1,0.1,0.4-0.1,0.5-0.2c0.3-0.3,0.3-2.3,0.4-3.3
	c0-0.3,0.2-1.1,0.1-1.3C116,20.8,115.6,21.8,115.6,21.8 M117.4,13.1c0.1,0,0.1,0.3,0.2,0.5c0.1,0.2,0.2,0.3,0.2,0.6
	c0,0.4,0,1.1,0,1.3c0,0.3,0.1,0.6,0.2,0.9c0.1,0.2,0.5,0.5,0.3,1c0,0.1-0.3,0.1-0.3,0.3c0,0.2,0,0.5-0.1,0.7
	c-0.3,0.5-0.3,0.5-0.6,1.2c-0.1,0.3-0.3,0.7-0.3,1.3c-0.1,0.7-0.1,1.3-0.2,1.9c0,0.2,0.1,0.7,0.1,1.2c0,0.5,0,1.1,0,1.6
	c0,0.8,0,1.5,0.1,2.1c0.1,0.8,0.1,1.6,0.1,2.3c0.1,0.9,0.1,1.9,0,2.8c0,0.1-0.1,0.4-0.2,0.5c-0.2,0.3-0.2,0.6-0.7,0.5
	c-0.1,0-0.3,0-0.3-0.1c-0.1-0.1-0.6-1-0.4-1.2c0.1-0.2,0.5-0.1,0.5-0.4c0-0.2,0-0.4,0-0.7c0-0.8,0-1.9,0-2.5c0-0.1-0.1-0.3-0.2-0.3
	c-0.3,0.2-0.6,0.5-1,0.5c-0.3,0-0.8-0.2-1.2-0.4c-0.5-0.3-0.4-0.8-0.6-1.4c-0.1-0.4,0.2-1.1,0.3-1.6c0.3-1.2,0.5-1.8,0.9-2.9
	c0.3-0.7,0.6-1.5,0.9-2.1c0.2-0.4,0.3-0.6,0.4-0.9c0.1-0.2,0.1-0.3,0.2-0.6c0.1-0.1,0.3-0.4,0.2-0.6c0,0-0.1-0.1-0.1-0.1
	c-0.2,0.1-0.6,0.4-0.7,0.4c-0.3,0.2-0.7,0.4-1.1,0.6c-0.3,0.1-0.5,0.1-0.7,0.3c-0.4,0.2-0.8,0.4-1.1,0.6c-0.1,0.1-1,0.2-0.9,0
	c0-0.1,0.2-0.1,0.3-0.2c0.1-0.2,0.3-0.3,0.4-0.5c0.1-0.1,0.7-0.7,0.8-0.9c0.6-0.5,0.9-0.7,1.3-1c0.3-0.2,0.8-0.5,1-0.7
	c0.4-0.2,0.8-0.4,1.2-0.7c0.2-0.1,0.4-0.1,0.5-0.2c0.1-0.1,0.3-1.7,0.4-2C117.2,13.6,117.2,13.1,117.4,13.1 M122.4,12.2
	c0.2,0,0.8,0.1,1,0.1c0.3,0.1,0.9,0.8,0.6,1.2c-0.2,0.4-0.9,0.9-1.3,1c-0.1,0.1-0.7,0.1-0.7,0c-0.1-0.1,0.6-0.5,0.5-0.9
	c0-0.2-0.4-0.3-0.6-0.5c-0.3-0.2-0.4-0.6,0-0.9C122,12.2,122.2,12.2,122.4,12.2 M128,7.3c0-0.2,0.2-0.4,0.4-0.2
	c0.2,0.3,0.3,0.7,0.4,1.1c0.2,0.6,0.3,0.9,0.4,1.4c0,0.2,0.1,0.7,0.1,0.9c0,2-0.4,2.6-1.1,4.1c0,0.1-0.5,0.9-0.7,1.4
	c-0.1,0.2-0.1,0.4-0.1,0.4c-0.4,0.2-0.3-0.4-0.2-0.8c0-0.7,0.2-1.3,0.3-2.1c0.1-1.1,0.3-2.1,0.3-3.2C127.7,10,128,8,128,7.3
	 M128,6.5c-0.4,0.2-0.7,0.6-0.8,0.9c-0.1,0.2-0.2,0.7-0.2,1c0,0.5,0,1.1-0.1,1.4c-0.1,0.8-0.1,1.1-0.2,1.8c0,0.3-0.1,1.1-0.2,1.4
	c-0.2,1.2-0.3,1.8-0.5,2.9c0,0.1-0.1,1.2-0.1,1.3c-0.1,0.4-0.1,0.6-0.2,1c-0.1,0.3-0.3,0.6-0.5,0.9c-0.1,0.1-0.2,0.3-0.3,0.4
	c-0.6,0.9-1.3,1.7-2,2.6c-0.3,0.3-0.5,0.7-0.9,1c0,0-0.1,0-0.2-0.1c-0.3-0.2,0.2-1.2,0.2-1.4c0.1-0.3,0.2-0.6,0.4-0.9
	c0.2-0.3,0.3-0.4,0.4-0.7c0.1-0.1,0.2-0.3,0.3-0.4c0.4-0.6,1.1-0.8,1.2-1.7c0-0.1-0.1-0.3-0.1-0.4c-0.1-0.3-0.3-0.5-0.5-0.7
	c-0.2-0.1-1.9-0.4-2.3-0.3c-0.2,0.1-0.6,0.4-0.5,0.7c0.2,0.8,0.5,0.8,1,1.4c0.1,0.1,0.4,0.3,0.4,0.6c-0.1,0.7-0.8,1.8-1.1,2.4
	c-0.2,0.4-0.4,0.7-0.6,1.1c-0.1,0.2-0.2,0.4-0.3,0.7c-0.1,0.4-0.2,0.8-0.2,1.2c-0.1,0.5,0.6,1,0.8,1.1c0.4,0.2,1.2,0.2,1.4-0.1
	c0.1-0.2,0.1-0.4,0.2-0.5c0.4-0.5,0.9-1.1,1.5-1.7c0.3-0.2,1.2-1.6,1.4-1.7c0.1,0,0.2,0,0.2,0.1c0,0.3-0.1,0.6-0.1,0.9
	c0,2.1,0.1,3.8,0,5.6c-0.1,1.2,0,2.3-0.1,3.4c-0.1,1.1,0,1.5,0,2.2c0,0.2,0.1,1.4,0.1,1.6c0.1,0.6,0.1,1.3,0.1,1.9
	c0,0.4,0,1.2,0.1,1.5c0,0.2,0.3,0.3,0.4-0.1c0.1-0.9,0.3-1.9,0.3-2.8c0-0.7,0-1.8,0-2.5c0.1-0.9,0.1-0.9,0.2-1.2
	c0.1-0.4,0.1-0.8,0.2-1.1c0.3-1.4,0.2-5.2,0.2-6.9c0-1-0.1-1.9-0.1-3.2c0-0.4,0.1-1,0.3-1.3c0.2-0.6,0.6-0.8,0.9-1.6
	c0.1-0.2,0.3-0.6,0.4-0.7c0.4-0.6,0.7-1.2,1-2c0.1-0.3,0.2-0.8,0.3-1.2c0.1-0.3,0.2-0.6,0.3-0.9c0-0.3,0.1-0.7,0-1
	c0-0.3,0-0.7-0.1-1c-0.1-0.8-0.3-1-0.5-1.7c-0.1-0.3-0.2-0.5-0.3-0.8C129,7.5,128.6,6.3,128,6.5 M119.9,6.6c0.7,0,0.9,0.4,1,1.1
	c0,0.2,0,0.5-0.1,0.7c-0.3,0.5-0.8,0.9-1.2,1.2c-0.2,0.1-0.8,0.6-0.9,0.7c-0.5,0.4-0.8,0.7-1.1,0.9c-0.3,0.2-1.2,0.3-1.2,0.1
	c-0.1-0.2,0.2-0.4,0.9-1.1c0.3-0.4,1.4-1.6,1.8-2.3C119.4,7.4,119.8,6.6,119.9,6.6 M73.2,15.4c1.3,0,2.7,1.2,3,2.2
	c0.1,0.2,0.3,1,0.2,1.3c-0.1,0.4-0.3,0.7-0.5,1c-0.1,0.2-0.3,0.4-0.4,0.5c-0.2,0.3-0.4,0.8-0.5,1.2c-0.1,0.6,1.5,1.7,0.8,2.2
	c-0.3,0.2-0.5-0.2-0.7-0.3c-0.6-0.3-0.9-1-0.9-1.9c0-0.1,0.1-0.3,0.1-0.4c0.1-0.8,0.6-1.7,0.4-2.7c0,0-0.1-0.1-0.1-0.1
	c-0.3,0-0.3,0.8-0.4,1.1c-0.1,0.6-0.2,1.3-0.3,1.9c-0.1,0.4,0,0.8-0.1,1.3c-0.2,1.1-0.3,2.5-0.4,3.4c0,0.3-0.1,0.7,0,1
	c0.1,0.5,0,1.1-0.1,1.5c0,0.3-0.1,0.6-0.1,0.9c-0.1,0.6-0.2,1.4-0.4,2c-0.1,0.3-0.2,0.6-0.3,0.8c-0.4,0.8-0.5,1.8-1.3,2.1
	c-0.7,0.3-1.2-1.3-1.4-1.7c-0.1-0.2-0.4-0.5-0.4-0.7c0,0,0-0.1,0-0.1c0,0,0.1,0,0.1,0c0.3,0.2,0.8,0.7,1.3,0.3
	c0.4-0.3,0.5-1.7,0.7-2.3c0.4-1.2,0.4-2.8,0.7-4.2c0.1-0.6,0.1-1.2,0.1-1.7c0.1-0.4,0.1-0.9,0.2-1.4c0.1-0.3,0.2-0.8,0.1-1.1
	c0,0-0.1-0.1-0.1-0.1c0,0-0.1,0-0.1,0c-0.2,0.2-0.6,1.4-0.7,1.7c-0.1,0.4-0.4,0.6-0.6,0.9c-0.3,0.5-0.6,1-0.9,1.6
	c-0.2,0.5-0.2,1.7-0.7,1.6c-0.5-0.1-1.5-0.9-1.3-1.7c0.1-0.3,0.3-0.5,0.4-0.8c0.3-0.6,0.5-1.2,0.7-1.9c0.1-0.4,0.5-1.4,0.2-1.8
	c0,0-0.1,0-0.1,0c-0.4,0.2-0.6,0.8-0.8,1.3c-0.1,0.3-0.3,0.6-0.4,0.9c-0.1,0.2-0.3,0.5-0.3,0.6c-0.1,0.4-0.2,0.7-0.4,1
	c-0.2,0.4-0.4,1.5-1.1,1c-0.3-0.2-0.9-1.4-0.7-2c0.2,0,0.9,0.1,1.2-0.4c0.2-0.3,0.3-0.6,0.5-0.8c0.6-0.7,1.1-1.4,1.7-2
	c0.3-0.3,0.5-0.8,1.2-0.8c0.8,0,0.7,0.9,0.6,1.5c-0.1,0.3-0.2,0.7,0,0.8c0.3,0.1,0.4-0.3,0.6-0.5c0.4-0.6,0.7-1.2,1.1-1.9
	c0.1-0.1,0.1-0.3,0.2-0.4c0.1-0.3,0.1-1.3,0.1-1.4c0.1-0.5,0.5-0.6,1-0.4c0.2,0.1,0.6,0.1,0.7-0.1c0.1-0.2-0.2-0.4-0.2-0.5
	c-0.2-0.3-0.4-0.6-0.7-0.8c-0.2-0.1-0.4-0.2-0.5-0.4C73,15.5,73,15.5,73.2,15.4C73.1,15.4,73.1,15.4,73.2,15.4 M79.3,9.7
	c0.6-0.1,1.2,0.2,1.4,0.6c0.1,0.2,0.1,0.4,0.1,0.6c0,0.2,0,0.3-0.1,0.5c-0.3,1.4-0.7,2.9-1,4.3c-0.2,0.8-0.2,1.6-0.4,2.4
	c0,0.2,0,0.5,0,0.7c-0.2,1.3-0.2,2.9-0.1,4.3c0,0.9,0.2,1.7,0.2,2.6c0,0.5,0,1.5,0,2c0,0.6,0,1.1,0,1.7c0,0.6,0.4,1.2,0.1,1.7
	c-0.1,0.2-0.2,0.5-0.4,0.6c-0.1,0.1-0.7-0.2-0.9-0.3c-0.5-0.2-0.8-0.7-1.2-1.1c-0.2-0.3-0.8-0.9-1.2-1.1c-0.2-0.1-0.2-0.2-0.4-0.3
	c-0.6-0.4-1.2-1-1.6-1.7c0-0.1,0-0.1,0.1-0.1c0.2,0,0.3,0.2,0.5,0.3c0.6,0.4,2.1,1.7,2.8,1.3c0.3-0.2,0.2-0.4,0.2-0.8
	c0-0.6,0-1.3,0-1.9c0-0.4,0-0.9,0-1.3c0-0.8,0.1-1.5,0-2.3c0-0.6,0-1.3,0-1.9c0-1.5,0-2.9,0.2-4.3c0.1-0.8,0.2-1.7,0.4-2.5
	c0.1-0.4,0.4-1.1,0.3-1.4c0-0.1-0.2,0-0.2,0c-0.2,0.1-1,0.8-1.3,1.1c-0.7,0.6-1.5,1-2.5,1.3c-0.3,0.1-1.4,0.4-1.7,0.1c0,0,0,0,0,0
	c0-0.2,1.4-0.9,1.6-1.1c0.4-0.3,0.7-0.8,1.1-1.1c0.8-0.7,1.7-1.3,2.6-1.9c0.2-0.2,0.3-0.4,0.6-0.6C78.8,9.7,79,9.7,79.3,9.7
	 M71.1,9.1c0-0.3,0.4,0.1,0.5,0.3c0.1,0.3,0.1,0.2,0.3,0.5c0.1,0.4,0.6,1.2,0.3,1.7c-0.1,0.2-0.5,0.3-0.7,0.5
	c-0.2,0.2-0.4,0.6-0.7,0.5c0,0-0.1-0.2-0.1-0.2c0.1-0.4,0.1-0.5,0.2-0.8c0.1-0.3,0.2-0.5,0.2-1C71.1,10.1,71,9.5,71.1,9.1 M70.1,6.5
	c-0.7,0.4-0.6,1.1-0.8,1.9c-0.3,1-0.5,2-0.7,3c-0.1,0.7-0.2,1.3-0.3,1.9c0,0.2,0,0.3,0,0.5c-0.1,0.4-1.2,0.9-1.5,1.2
	c-0.4,0.3-0.8,0.7-1.2,1c-0.8,0.6-1.8,1.2-2.3,2.2c-0.5,0.8,0.4,1.2,0.4,1.9c0,0.7-0.5,1.4-0.6,2.1c-0.1,0.4-0.2,1-0.4,1.4
	c-0.2,0.7-0.4,1.6-0.9,2c-0.1,0.1-0.2,0-0.3-0.1c-0.1-0.2-0.2-0.4-0.2-0.6c-0.2-1.1-0.3-2.3-0.6-3.4c-0.1-0.4-0.2-1.2-0.4-1.5
	c-0.2,0.1-0.2,0.8-0.2,1.2c-0.1,0.6-0.3,1.1-0.4,1.6c0,0.2-0.1,0.4-0.1,0.7c-0.1,0.7-0.2,1.8-0.1,2.7c0,0.2,0,0.3,0,0.5
	c0,0.5,0,1.1,0,1.6c0,0.3,0,0.5,0,0.8c0,0.3,0,0.6,0,1c0,0.4-0.3,0.8-0.2,1.3c0,0.1,0.1,0.2,0.1,0.3c0.1,0.3,0.1,0.4,0.2,0.6
	c0.2,0.3,0.5,0.4,0.8,0.5c0.2,0.1,0.3,0.3,0.5,0.3c0.4,0,0.3-0.3,0.4-0.6c0.2-0.7,0.5-1.5,0.8-2.2c0.1-0.2,0.2-0.3,0.2-0.5
	c0.2-0.4,0.3-0.7,0.5-1.1c0.1-0.3,0-0.6,0.1-0.9c0.1-0.2,0.1-0.4,0.2-0.6c0.2-0.7,0.2-1.3,0.4-2c0.2-0.5,0.3-1,0.4-1.6
	c0.3-0.6,0.3-0.8,0.4-1.4c0.3-0.8,0.4-1.4,0.6-2.2c0.1-0.4-0.1-0.8,0.1-1c0.2-0.3,0.6-0.1,1-0.2c0.4-0.1,0.7,0,1.2-0.2
	c0.2-0.1,0.4-0.3,0.7-0.5c0.2-0.1,0.2,0.1,0.2,0.2c0,0.4-0.6,1-0.7,1.4c0.2,0.1,0.3,0.1,0.3,0c0.3-0.2,0.5-0.4,0.6-0.6
	c0.5-0.6,0.8-1.3,1.2-2.1c0.1-0.4,0.1-0.8,0.3-1.1c0.1-0.1,0.2-0.2,0.3-0.3c0.1-0.1,0.4-0.3,0.5-0.4c0.4-0.4,0.7-0.5,1.2-0.8
	c0.3-0.3,0.7-0.5,1-0.8c0.4-0.2,1-0.4,1.3-0.8c0.4-0.6,0.6-1.3,0.3-1.9c-0.2-0.3-0.7-0.4-1-0.6c-0.2-0.2-0.4-0.5-0.7-0.7
	c-0.1-0.1-0.2-0.2-0.3-0.2c-0.2-0.2-0.4-0.4-0.6-0.7c-0.2-0.2-0.6-0.6-0.7-0.8C70.8,7.3,71,6.5,70.1,6.5 M62.3,4.3
	c0.5,0,1.3,0.9,1.5,1.2c0.1,0.1,0.1,0.2,0.1,0.3c0.1,0.3,0.4,0.4,0.5,0.8c0.8,2.5-0.4,4.4-1.7,5.6c-0.1,0-0.2,0.1-0.4,0.1
	c0.1-0.1,0.1-0.2,0.1-0.3c0.1-0.2,0.2-0.4,0.3-0.7c0.2-0.4,0.3-0.9,0.4-1.4c0.1-0.5-0.1-1.3-0.1-1.7c-0.1-0.5-0.1-1-0.3-1.5
	c-0.2-0.7-0.5-1.6-0.5-2.5C62.2,4.3,62.2,4.3,62.3,4.3 M96,25.4c-0.1,0.1-0.5,0.4-0.4,0.6c0,0,0,0.1,0,0.1c0,0,0.1,0,0.1,0
	c0.1-0.1,0.6-0.5,0.4-0.7C96.2,25.3,96.1,25.4,96,25.4 M97.8,9.4c0.2-0.1,0.3,0.5,0.4,0.7c0.1,0.1,0.2,0.3,0.2,0.4
	c0,0.2-0.1,0.4-0.1,0.6c-0.1,0.6,0,1.4-0.1,2c-0.1,0.3-0.2,0.6-0.3,0.9c0,0,0,0.1,0.1,0.1c0.3,0.1,0.6-0.2,0.8-0.3
	c0.6-0.3,0.8-0.5,0.9-0.9c0-0.1,0-0.3,0-0.5c0-0.1-0.2-0.3-0.2-0.4c0.1-0.2,0.6,0.2,0.7,0.3c0.4,0.3,1.1,0.7,0.5,1.3
	c-0.2,0.2-0.5,0.4-0.7,0.6c-0.4,0.3-0.8,0.8-1.3,1.1c-0.2,0.1-0.5,0.2-0.7,0.4c-0.4,0.2-0.7,0.6-1,0.9c-0.3,0.2-1.3,0.8-1.3,1.2
	c0,0,0,0.1,0,0.1c0,0,0.1,0,0.1,0c0.3,0.1,1-0.5,1.2-0.7c1.1-0.6,2.2-1.2,3.5-1.5c0.2-0.1,0.3-0.2,0.5-0.3c0.4-0.2,1.2-0.1,1.4,0.2
	c0.2,0.4,0.2,1.1,0,1.6c-0.3,1.1-0.5,2.5-0.6,3.6c0,0.2,0,0.4,0,0.7c0,0.3,0,0.6,0,0.8c0.1,0.8,0,1.7,0.1,2.5c0,0.3,0.1,0.7,0.1,1.1
	c0,0.7,0.1,1.7,0.1,2.4c0,0.5-0.1,1.3-0.2,1.8c-0.1,0.3-0.3,0.7-0.4,1c-0.2,0.2-0.6,0.3-1,0.2c-0.6-0.3-1-0.7-1.5-1.1
	c-0.1-0.1-0.6-0.5-0.6-0.7c0,0,0-0.1,0-0.1c0.3,0,0.5,0.3,0.8,0.4c0.4,0.1,1.3,0.3,1.5-0.1c0.6-0.9,0.3-5.4,0.4-6.4
	c0-1.5,0-2.9,0.1-4.4c0.1-0.6,0.2-1.5,0-1.9c-0.3-0.5-1.9,0.5-2.2,0.7c-0.7,0.4-1.5,0.7-2.2,1.1c-0.8,0.5-1.6,1.3-2.3,2
	c-0.2,0.2-1.2,0.9-1.2,1.2c0,0,0,0.1,0,0.1c0.6,0.1,1.7-0.8,2-1.1c0.2-0.2,0.2-0.7,0.4-0.8c0.5-0.3,2-0.2,1.9,0.5
	c-0.1,0.7-1,1.4-1.4,1.9c-0.1,0.2-0.6,0.5-0.5,0.8c0.2,0.5,1,0.5,1.2,1c0.6,1.4-0.3,1.6-0.6,2.6c-0.1,0.4,0,0.9-0.1,1.3
	c-0.1,0.5,0,1.3-0.3,1.6c0,0-0.1,0-0.1,0c-0.3-0.4-0.3-1.1-0.4-1.7c-0.1-0.3,0-0.7-0.1-0.7c-0.2-0.1-0.6,0.3-0.8,0.4
	c-0.1,0.1-0.3,0.4-0.5,0.3c-0.4-0.1-0.5-1-0.3-1.3c0.1-0.1,0.2-0.2,0.3-0.3c0.2-0.4,0.4-0.8,0.6-1.2c0.1-0.2,0.4-0.5,0.3-0.8
	c-0.1-0.2-0.4-0.2-0.5-0.5c-0.1-0.3,0.2-0.8-0.1-0.9c-0.3-0.1-0.4,0.4-0.8,0.4c-0.4,0-0.6-0.6-1-0.8c-0.4-0.2-1,0.4-1.4,0.6
	c-0.2,0.1-0.4,0.3-0.6,0.4c-0.3,0.2-0.6,0.4-0.8,0.8c-0.1,0.2-0.2,0.4-0.2,0.6c0,0.1-0.1,0.4-0.2,0.5c-0.1,0.3-0.1,0.8-0.2,1.1
	c-0.1,0.5-0.1,1.1-0.1,1.6c0,0.4,0,0.8-0.2,1c0,0-0.1,0.1-0.2,0.1c-0.1-0.1-0.1-0.2-0.2-0.4c-0.1-0.2-0.3-0.4-0.4-0.6
	c-0.2-0.4,0-1.6,0.2-2c0.1-0.2,0.2-0.5,0.4-0.7c0.3-0.4,0.4-0.4,0.6-1c0.1-0.3,0.3-0.7,0.4-1c0.7-1.2,1.3-2,2.3-2.9
	c0.2-0.2,0.5-0.5,0.7-0.7c0.6-0.5,1.4-1,1.8-1.6c0.1-0.2,0.4-0.3,0.4-0.6c0,0,0-0.1-0.1-0.1c0,0-0.1-0.1-0.2,0
	c-0.4,0.2-0.8,0.4-1.3,0.7c-0.3,0.2-0.5,0.2-0.8,0.3c-0.2,0.1-0.6,0.3-0.8,0.4c-0.5,0-0.5,0-1,0.1c-0.5,0.1-2.2-0.1-2-0.5
	c0.1-0.1,1.5-0.7,1.8-0.8c1.2-0.6,2.3-1.4,3.5-2c0.5-0.3,1.2-0.4,1.5-0.8c0.2-0.3,0.3-1.4,0.4-1.9c0.2-1,0.8-2.4,1.3-3.2
	C97.5,10.1,97.4,9.6,97.8,9.4 M145.3,11.5c0,0-0.2,0.4-0.3,0.4c-0.1,0.3-0.1,0.6-0.1,0.9c0,0.1,0,0.1,0,0.2c0,0.1,0,0.1,0,0.2
	c-0.1,0.4-0.2,1.5-0.1,1.8c0,0.1,0.1,0.4,0.2,0.4c0.5-0.2,1.3-0.6,1.6-1c0.1-0.1,0.8-0.6,0.8-0.8c-0.1-0.2-0.6-0.7-0.7-0.9
	C146.4,12.2,145.7,11.5,145.3,11.5 M156.2,20.1c-0.3,0-0.9,0.2-1.2,0.3c-0.1,0-0.2,0-0.3,0.1c-0.2,0.1-0.3,0.1-0.5,0.2
	c-0.3,0.1-0.3,0.1-0.6,0.2c-0.2,0.1-1,0.6-1,0.8c0,0.5,0.7,0.6,1.1,0.7c1,0.5,1.4,1.3,2.2,0c0.1-0.2,0.2-0.3,0.3-0.5
	C156.2,21.7,157.1,20.1,156.2,20.1 M144.5,9.3c0.5-0.1,1.3,0.5,1.4,0.9c0,0.1,0.3,0.4,0.3,0.5c0.1,0.4,0.5,0.5,0.7,0.9
	c0.4,0.6,1.4,1,1.6,1.9c0.1,0.6-0.3,0.9-0.6,1.2c-0.2,0.2-0.5,0.3-0.6,0.5c-0.3,0.4-0.7,0.5-1,0.9c-0.2,0.2-0.4,0.4-0.6,0.6
	c-0.3,0.2-0.3,0.3-0.7,0.7c-0.2,0.2-0.4,0.2-0.6,0.4c0,0.1-0.3,1-0.3,1.1c0,0.1,0,0.3-0.1,0.4c-0.1,0.4-0.3,1.1-0.1,1.6
	c0,0,0,0.1,0.1,0.1c0.5,0,1.1-0.5,1.5-0.8c0.6-0.4,1.2-0.8,1.7-1.2c0.5-0.3,0.9-0.5,1.4-0.9c0.1-0.1,0.3-0.3,0.4-0.4
	c0.2-0.1,0.3-0.3,0.5-0.4c0.5-0.2,1.2-0.7,1.5-1.1c0.2-0.2,0.6-0.6,0.7-0.8c0.4-1.1,0.5-2.5,0.5-3.6c0-0.3,0-0.6,0-0.8
	c0-0.3,0-0.7,0.1-1c0-0.1,0.1-0.1,0.2-0.2c0-0.1,0.1-0.1,0.1-0.2c0.4-0.2,1,0.6,1.2,0.9c0.1,0.3,0.6,0.8,0.4,1.3
	c-0.1,0.2-0.2,0.3-0.3,0.5c-0.1,0.2-0.1,0.4-0.1,0.6c-0.1,0.5-0.2,1.4,0.2,1.4c0.3,0,0.7-0.5,0.8-0.7c0.2-0.3,0.6-0.5,0.9-0.8
	c0.1-0.2,0.2-0.7,0.5-0.6c0.7,0.2-0.2,1.3-0.4,1.7c-0.1,0.2-0.1,0.5-0.2,0.7c-0.2,0.3-0.2,0.2-0.4,0.5c-0.2,0.2-0.3,0.2-0.5,0.4
	c-0.1,0.2-0.3,0.3-0.4,0.4c-0.3,0.3-0.5,0.1-0.8,0.6c-0.2,0.2-0.5,0.3-0.7,0.6c-0.2,0.4-0.3,0.5-0.4,0.8c0,0.1,0,0.2-0.1,0.4
	c-0.2,0.3-0.4,0.6-0.6,0.9c-0.2,0.3-1.3,1.7-1.1,2c0.1,0.1,0.4,0.2,0.6,0.1c0.4-0.1,0.9-0.6,1.3-0.9c0.3-0.2,0.6-0.4,1-0.5
	c0.4-0.2,0.8-0.5,1.3-0.6c0.4-0.1,1.3-0.4,1.5-0.3c0.2,0,0.4,0,0.6,0.1c0.2,0.1,0.4,0.5,0.6,0.7c0.5,0.9-0.7,2.7-1,3.4
	c-0.1,0.2-0.7,0.6-0.6,0.8c0.1,0.1,0.9,0.8,1.2,1c0.3,0.3,0.7,0.6,1,0.9c0.5,0.4,1.1,1,1.6,1.2c0.3,0.1,0.3,0.2,0.6,0.4
	c0.4,0.3,0.9,0.4,1.2,0.9c0.3,0.5,0.5,1,0.7,1.6c0.1,0.2,0.2,0.5,0.1,0.7c-0.2,0.2-1.1,0.7-1.5,0.4c-0.3-0.3-0.6-0.6-0.9-0.9
	c-0.4-0.4-0.5-0.9-0.9-1.2c-0.2-0.2-0.7-0.7-1-1c-0.5-0.7-1.1-1.3-1.7-1.9c-0.4-0.4-0.9-1.1-1.3-1c-0.2,0-0.5,0.5-0.8,0.8
	c-0.4,0.4-0.9,0.7-1.3,1.1c-0.3,0.2-0.4,0.6-0.7,0.8c-0.6,0.5-1.6,1.1-2.5,1.3c-0.5,0.1-0.7-0.3-0.8-0.5c-0.6-0.7-1.1-1.6-1.3-2.7
	c-0.1-0.5-0.5-1.4,0-1.6c0.3-0.1,0.3,0.3,0.5,0.4c0.3,0.4,0.4,0.7,0.7,1.1c0.2,0.3,0.6,0.8,0.9,1c1.3,0.9,3-1,3.6-1.6
	c0.2-0.2,0.9-0.7,0.8-1c-0.1-0.4-2-1.4-2.8-1.5c-0.7-0.1-2.2,0-2.2-0.7c0-0.4,0.5-0.6,0.7-0.9c0.3-0.4,0.5-1,0.7-1.4
	c0.1-0.3,0.4-0.8,0.3-1.2c0,0-0.1-0.1-0.1-0.1c-0.2,0-0.3,0-0.5,0.1c-0.4,0.1-0.7,0.3-1,0.6c-0.2,0.3-0.5,0.4-0.7,0.6
	c-0.4,0.3-0.9,0.6-1.3,0.9c-0.6,0.3-1.1,0.6-1.7,0.9c-0.4,0.2-0.7,0.5-1,0.7c-0.4,0.3-0.7,0.5-0.9,0.9c-0.1,0.1-0.2,1.2-0.3,1.4
	c-0.1,1.2-0.1,2.6-0.1,3.8c0,0.3-0.1,0.8,0,1c0,0.2-0.2,1.4-0.3,1.6c-0.1,0.1-0.2,0.5-0.4,0.6c-0.2,0.1-0.5,0-0.8-0.2
	c-0.8-0.3-0.7-1.3-1.1-2.3c-0.1-0.2-0.2-0.5-0.2-0.6c0-0.2-0.1-0.7,0.1-0.6c0,0,1,0.6,1.3,0.3c0.1-0.2,0.1-0.7,0.2-1
	c0.1-0.3,0.2-0.8,0.2-1.2c0-0.2,0-0.5,0.1-0.7c0-0.2,0.2-0.8,0-0.9c0,0-0.2,0-0.3,0c-0.3,0.2-0.5,0.4-0.8,0.7
	c-0.2,0.2-0.3,0.5-0.6,0.6c-0.5,0.5-1.1,0.8-1.7,1.1c-0.1,0.1-0.8,0.4-1,0.4c-0.1,0-0.3-0.1-0.4-0.2c-0.1-0.1-0.1-0.2-0.2-0.4
	c-0.1-0.6,0.8-1.6,1.2-1.8c0.9-0.6,1.8-1,2.6-1.7c0.3-0.2,0.4-0.4,0.6-0.6c0.4-0.2,0.7-0.6,0.9-1c0.2-0.3,0.3-1.8,0.4-2.2
	c0-0.2,0.1-0.6,0-0.7c-0.2-0.1-0.6,0.2-0.8,0.3c-0.6,0.3-2.7,1.2-3.2,0.4c-0.4-0.6,0.3-1.1,0.6-1.3c0.4-0.3,1.1-0.4,1.6-0.6
	c0.3-0.1,0.5-0.3,0.8-0.5c0.5-0.3,0.8-0.3,1.2-0.7c0.1-0.1,0.1-0.8,0.1-0.9c0.2-0.3,0.1-0.5,0.2-0.8c0.2-0.8,0-1.1,0.1-1.7
	c0.1-0.7,0-1.2,0.2-1.9C144.1,10.2,144,9.5,144.5,9.3"/>
</svg>
